<svg xmlns="http://www.w3.org/2000/svg" xmlns:xlink="http://www.w3.org/1999/xlink" xmlns:lucid="lucid" width="1760" height="1360"><g transform="translate(0 0)" lucid:page-tab-id="0_0"><path d="M0 0h1760v1360H0z" fill="#fff"/><path d="M200 48c0-4.42 3.58-8 8-8h1324c4.42 0 8 3.58 8 8v1184c0 4.42-3.58 8-8 8H208c-4.42 0-8-3.58-8-8z" stroke="#333" fill="#fff"/><path d="M340 607.4c0-4.42 3.58-8 8-8h84c4.42 0 8 3.58 8 8v4.92c0 3.9-2.24 9.3-5 12.08-2.76 2.76-8.17 5-12.07 5H348c-4.42 0-8-3.6-8-8z" fill="#fff"/><path d="M440 599.4v20l-10 10h-90" stroke="#333" fill="none"/><path d="M340 607.4c0-4.42 3.58-8 8-8h1044c4.42 0 8 3.58 8 8V1152c0 4.42-3.58 8-8 8H348c-4.42 0-8-3.58-8-8zM340 775h20m15 0h20m15 0h20m15 0h20m15 0h20m15 0h20m15 0h20m15 0h20m15 0h20m15 0h20m15 0h20m15 0h20m15 0h20m15 0h20m15 0h20m15 0h20m15 0h20m15 0h20m15 0h20m15 0h20m15 0h20m15 0h20m15 0h20m15 0h20m15 0h20m15 0h20m15 0h20m15 0h20m15 0h20m15 0h20m15 0h10" stroke="#333" fill="none"/><use xlink:href="#a" transform="matrix(1,0,0,1,348,599.3956341445537) translate(-1.4249999999999972 18.6)"/><use xlink:href="#b" transform="matrix(1,0,0,1,352,637.3956341445537) translate(13.100000000000023 18.6)"/><use xlink:href="#c" transform="matrix(1,0,0,1,352,637.3956341445537) translate(23.100000000000023 18.6)"/><use xlink:href="#d" transform="matrix(1,0,0,1,352,637.3956341445537) translate(44.050000000000026 18.6)"/><use xlink:href="#e" transform="matrix(1,0,0,1,352,637.3956341445537) translate(197.75 18.6)"/><use xlink:href="#f" transform="matrix(1,0,0,1,352,637.3956341445537) translate(208.7 18.6)"/><use xlink:href="#g" transform="matrix(1,0,0,1,352,637.3956341445537) translate(224.2 18.6)"/><use xlink:href="#h" transform="matrix(1,0,0,1,352,637.3956341445537) translate(281.9 18.6)"/><use xlink:href="#b" transform="matrix(1,0,0,1,352,783) translate(7.024999999999999 18.6)"/><use xlink:href="#i" transform="matrix(1,0,0,1,352,783) translate(17.025 18.6)"/><use xlink:href="#h" transform="matrix(1,0,0,1,352,783) translate(67.975 18.6)"/><path d="M875.04 264.5l.06 9.94m.05 9.95l.1 19.88m.07 9.94l.1 19.9m.06 9.94l.1 19.88m.07 9.95l.1 19.88m.06 9.94l.12 19.9m.06 9.94l.1 19.88m.06 9.95l.1 19.88m.07 9.94l.12 19.9m.05 9.94l.1 19.88m.07 9.95l.1 19.88m.06 9.94l.1 19.9m.07 9.94l.1 19.88m.06 9.95l.1 19.88m.07 9.94l.1 19.9m.06 9.94l.1 19.88m.07 9.95l.1 19.88m.06 9.94l.1 19.9m.06 9.94l.1 19.88m.06 9.95l.1 19.88m.07 9.94l.1 19.9m.06 9.94l.1 19.88m.06 9.95l.1 19.88m.07 9.94l.1 19.9m.05 9.94l.1 19.88m.07 9.95l.1 19.88m.06 9.94l.1 19.9m.07 9.94l.1 19.88m.06 9.95l.12 19.88m.06 9.94l.1 19.9m.06 9.94l.06 9.94" stroke="#333" fill="none"/><path d="M875.54 264.5l-1 .02V264h1" fill="#333"/><path d="M880 1159.5v.5" stroke="#333" fill="none"/><path d="M860 368c0-4.42 3.58-8 8-8h24c4.42 0 8 3.58 8 8v704c0 4.42-3.58 8-8 8h-24c-4.42 0-8-3.58-8-8z" stroke="#f2f2f2" fill="#ced4db"/><path d="M780 128c0-4.42 3.58-8 8-8h174.08c4.4 0 8 3.58 8 8v128c0 4.42-3.6 8-8 8H788c-4.42 0-8-3.58-8-8z" stroke="#000" stroke-opacity="0" fill="#ffaf28"/><use xlink:href="#j" transform="matrix(1,0,0,1,788,128) translate(32.216049382716044 56.888888888888886)"/><use xlink:href="#k" transform="matrix(1,0,0,1,788,128) translate(57.89506172839506 56.888888888888886)"/><use xlink:href="#l" transform="matrix(1,0,0,1,788,128) translate(122.04320987654322 56.888888888888886)"/><use xlink:href="#m" transform="matrix(1,0,0,1,788,128) translate(34.68518518518518 78.22222222222223)"/><path d="M463.4 177.42c0 10.9-8.84 19.75-19.75 19.75-10.9 0-19.75-8.85-19.75-19.75s8.84-19.75 19.75-19.75c10.9 0 19.75 8.84 19.75 19.75z" stroke="#333" fill="#fff"/><path d="M443.65 197.17v47.3c0 4.4 1.92 11.02 4.28 14.76l35.72 56.44m-40-63.2l-40 63.2m0-98.75h80" stroke="#333" fill="none"/><path d="M403.65 165.67c0-4.42 3.58-8 8-8h64c4.42 0 8 3.58 8 8v164c0 4.4-3.58 8-8 8h-64c-4.42 0-8-3.6-8-8z" fill="none"/><path d="M444.15 1160h-1v-10.07h1m0-10.07h-1v-20.13h1m0-10.07h-1v-20.13h1m0-10.07h-1v-20.14h1m0-10.07h-1v-20.13h1m0-10.07h-1v-20.13h1m0-10.07h-1V968.7h1m0-10.06h-1V938.5h1m0-10.06h-1V908.3h1m0-10.06h-1V878.1h1m0-10.07h-1V847.9h1m0-10.07h-1V817.7h1m0-10.07h-1V787.5h1m0-10.08h-1V757.3h1m0-10.08h-1V727.1h1m0-10.08h-1v-20.14h1m0-10.07h-1V666.7h1m0-10.07h-1V636.5h1m0-10.07h-1v-20.13h1m0-10.07h-1v-20.13h1m0-10.07h-1v-20.13h1m0-10.07h-1v-20.14h1m0-10.07h-1v-20.14h1m0-10.07h-1v-20.14h1m0-10.07h-1v-20.15h1m0-10.07h-1v-20.13h1m0-10.07h-1v-20.13h1m0-10.07h-1v-12.9h1m0-21.6h-1v-15.84h1m0-10.07h-1v-20.13h1m0-10.07h-1V253.9h1M444.15 253.9h-1v-3.5h1M444.15 1160.5h-1v-.5h1" fill="#333"/><use xlink:href="#n" transform="matrix(1,0,0,1,408.6996896262572,320.06558009066157) translate(0.005000000000002558 14.4)"/><path d="M447.56 395.67h395.56M447.57 395.67h-.5" stroke="#333" fill="none"/><path d="M857.88 395.67l-14.26 4.63v-9.27z" stroke="#333" fill="#333"/><path d="M423.65 368c0-4.42 3.58-8 8-8h24c4.42 0 8 3.58 8 8v184c0 4.42-3.58 8-8 8h-24c-4.42 0-8-3.58-8-8z" stroke="#f2f2f2" fill="#ced4db"/><path d="M859 440h-9.4m-9.38 0h-18.78m-9.4 0h-18.77m-9.38 0h-18.8m-9.38 0h-18.78m-9.4 0h-18.77m-9.4 0H680.6m-9.4 0H651.76m-10.07 0h-20.14m-10.07 0h-20.15m-10.07 0H561.1m-10.06 0H530.9m-10.08 0h-20.14m-10.07 0h-10.07" stroke="#333" fill="none"/><path d="M859.5 440.5h-.5v-1h.5" fill="#333"/><path d="M465.77 440l14.26-4.64v9.28z" stroke="#333" fill="#333"/><path d="M480 440h360v40H480z" fill="#fff" fill-opacity="0"/><use xlink:href="#o" transform="matrix(1,0,0,1,485,444.9999999999999) translate(31.875 14.4)"/><use xlink:href="#p" transform="matrix(1,0,0,1,485,444.9999999999999) translate(97.425 14.4)"/><use xlink:href="#q" transform="matrix(1,0,0,1,485,444.9999999999999) translate(144.425 14.4)"/><use xlink:href="#r" transform="matrix(1,0,0,1,485,444.9999999999999) translate(169.425 14.4)"/><use xlink:href="#s" transform="matrix(1,0,0,1,485,444.9999999999999) translate(238.22500000000002 14.4)"/><use xlink:href="#t" transform="matrix(1,0,0,1,485,444.9999999999999) translate(263.225 14.4)"/><path d="M463.65 358.2H860v54.47H463.65z" fill="#fff" fill-opacity="0"/><use xlink:href="#u" transform="matrix(1,0,0,1,468.6496896262572,363.2031256776826) translate(25.1543209876543 14.222222222222223)"/><use xlink:href="#v" transform="matrix(1,0,0,1,468.6496896262572,363.2031256776826) translate(107.03086419753086 14.222222222222223)"/><use xlink:href="#w" transform="matrix(1,0,0,1,468.6496896262572,363.2031256776826) translate(131.72222222222223 14.222222222222223)"/><use xlink:href="#x" transform="matrix(1,0,0,1,468.6496896262572,363.2031256776826) translate(199.67283950617283 14.222222222222223)"/><use xlink:href="#y" transform="matrix(1,0,0,1,468.6496896262572,363.2031256776826) translate(227.27777777777777 14.222222222222223)"/><use xlink:href="#z" transform="matrix(1,0,0,1,468.6496896262572,363.2031256776826) translate(269.6975308641975 14.222222222222223)"/><use xlink:href="#A" transform="matrix(1,0,0,1,468.6496896262572,363.2031256776826) translate(307.62345679012344 14.222222222222223)"/><path d="M464.65 524.5h378.47" stroke="#333" fill="none"/><path d="M464.66 525h-.5v-1h.5" fill="#333"/><path d="M857.88 524.5l-14.26 4.64v-9.27z" stroke="#333" fill="#333"/><use xlink:href="#B" transform="matrix(1,0,0,1,574.4498448131287,498.9081204289854) translate(0.0049999999999954525 14.4)"/><use xlink:href="#C" transform="matrix(1,0,0,1,574.4498448131287,498.9081204289854) translate(49.955 14.4)"/><use xlink:href="#D" transform="matrix(1,0,0,1,574.4498448131287,498.9081204289854) translate(68.905 14.4)"/><use xlink:href="#E" transform="matrix(1,0,0,1,574.4498448131287,498.9081204289854) translate(94.855 14.4)"/><use xlink:href="#t" transform="matrix(1,0,0,1,574.4498448131287,498.9081204289854) translate(119.855 14.4)"/><path d="M680 1268c0-4.42 3.58-8 8-8h380.1c4.43 0 8 3.58 8 8v54.53c0 4.42-3.57 8-8 8H688c-4.42 0-8-3.58-8-8z" stroke="#000" stroke-opacity="0" fill="#fff" fill-opacity="0"/><use xlink:href="#F" transform="matrix(1,0,0,1,685,1265) translate(28.09907407407414 38.281944444444434)"/><use xlink:href="#G" transform="matrix(1,0,0,1,685,1265) translate(83.93179012345684 38.281944444444434)"/><use xlink:href="#H" transform="matrix(1,0,0,1,685,1265) translate(104.34475308641979 38.281944444444434)"/><use xlink:href="#I" transform="matrix(1,0,0,1,685,1265) translate(243.78672839506171 38.281944444444434)"/><path d="M901 538.94h27.5c6.63 0 12 5.37 12 12v16.73c0 6.63-5.37 12-12 12h-11.62" stroke="#333" fill="none"/><path d="M901 539.44h-.5v-1h.5" fill="#333"/><path d="M902.12 579.67l14.26-4.63v9.27z" stroke="#333" fill="#333"/><use xlink:href="#J" transform="matrix(1,0,0,1,948.5,548.5055847292904) translate(0.0049999999999954525 14.4)"/><path d="M859 700h-9.7m-9.7 0h-19.42m-9.7 0h-19.4m-9.7 0h-19.42m-9.7 0h-19.42m-9.7 0h-19.4m-9.7 0H674.6m-9.7 0h-19.4m-9.72 0h-19.4m-9.7 0h-19.42m-9.7 0h-19.4m-9.72 0h-19.4m-9.7 0h-19.42m-9.7 0h-9.7" stroke="#333" fill="none"/><path d="M859.5 700.5h-.5v-1h.5" fill="#333"/><path d="M465.77 700l14.26-4.64v9.28z" stroke="#333" fill="#333"/><use xlink:href="#K" transform="matrix(1,0,0,1,602.9248448131286,704.0000000000002) translate(0.005000000000002558 14.4)"/><use xlink:href="#L" transform="matrix(1,0,0,1,602.9248448131286,704.0000000000002) translate(77.95500000000001 14.4)"/><path d="M423.65 688c0-4.42 3.58-8 8-8h24c4.42 0 8 3.58 8 8v44c0 4.42-3.58 8-8 8h-24c-4.42 0-8-3.58-8-8z" stroke="#f2f2f2" fill="#ced4db"/><path d="M859 1042.1h-9.4m-9.38 0h-18.78m-9.4 0h-18.77m-9.38 0h-18.8m-9.38 0h-18.78m-9.4 0h-18.77m-9.4 0H680.6m-9.4 0H651.76m-10.07 0h-20.14m-10.07 0h-20.15m-10.07 0H561.1m-10.06 0H530.9m-10.08 0h-20.14m-10.07 0h-10.07" stroke="#333" fill="none"/><path d="M859.5 1042.6h-.5v-1h.5" fill="#333"/><path d="M465.77 1042.1l14.26-4.65v9.27z" stroke="#333" fill="#333"/><g><use xlink:href="#K" transform="matrix(1,0,0,1,508.9498448131286,1046.0887597970636) translate(0.0049999999999954525 14.4)"/><use xlink:href="#q" transform="matrix(1,0,0,1,508.9498448131286,1046.0887597970636) translate(77.955 14.4)"/><use xlink:href="#M" transform="matrix(1,0,0,1,508.9498448131286,1046.0887597970636) translate(102.955 14.4)"/><use xlink:href="#N" transform="matrix(1,0,0,1,508.9498448131286,1046.0887597970636) translate(203.755 14.4)"/><use xlink:href="#O" transform="matrix(1,0,0,1,508.9498448131286,1046.0887597970636) translate(246.755 14.4)"/></g><path d="M1220 140c0-4.42 3.58-8 8-8h144c4.42 0 8 3.58 8 8v104c0 4.42-3.58 8-8 8h-144c-4.42 0-8-3.58-8-8z" stroke="#333" fill="#ffcc78"/><g><use xlink:href="#P" transform="matrix(1,0,0,1,1220,132) translate(51.555 63.15)"/></g><path d="M1300 253v10.08m0 10.08v20.15m0 10.1v20.14m-.02 10.08v20.16m0 10.08V384m0 10.1v20.14m-.02 10.08v20.16m0 10.08v20.15m0 10.1l-.02 20.14m0 10.08v20.16m0 10.08v20.15m0 10.1l-.02 20.14m0 10.08v20.16m0 10.08v20.15m0 10.1l-.02 20.14m0 10.08v20.16m0 10.08v20.15m0 10.1l-.02 20.14m0 10.08v20.16m0 10.08v20.15m0 10.1l-.02 20.14m0 10.08v20.16m0 10.08v20.15m-.02 10.1v20.14m0 10.08v20.16m0 10.08v20.15m-.02 10.1v20.14m0 10.08v20.16m0 10.08l-.02 20.15m0 10.1v20.14m0 10.08V1160" stroke="#333" fill="none"/><path d="M1300.5 253h-1v-.5h1M1300.3 1160v.5h-1v-.5" fill="#333"/><path d="M1280 808c0-4.42 3.58-8 8-8h24c4.42 0 8 3.58 8 8v64c0 4.42-3.58 8-8 8h-24c-4.42 0-8-3.58-8-8z" stroke="#f2f2f2" fill="#ced4db"/><path d="M901 823.2h362.12" stroke="#333" fill="none"/><path d="M901 823.7h-.5v-1h.5" fill="#333"/><path d="M1277.88 823.2l-14.26 4.64v-9.27z" stroke="#333" fill="#333"/><g><use xlink:href="#Q" transform="matrix(1,0,0,1,1025.05,797.6071027184726) translate(0.0049999999999954525 14.4)"/><use xlink:href="#R" transform="matrix(1,0,0,1,1025.05,797.6071027184726) translate(73.005 14.4)"/></g><path d="M1279 860h-10.5m-10.5 0h-21m-10.5 0h-21m-10.5 0h-21m-10.5 0h-21m-10.5 0h-21m-10.5 0H1080.38m-9.62 0h-19.23m-9.62 0h-19.22m-9.62 0h-19.24m-9.6 0h-19.25m-9.62 0h-19.23m-9.62 0h-9.62" stroke="#333" fill="none"/><path d="M1279.5 860.5h-.5v-1h.5" fill="#333"/><path d="M902.12 860l14.26-4.64v9.28z" stroke="#333" fill="#333"/><g><use xlink:href="#S" transform="matrix(1,0,0,1,1030.6000000000001,864) translate(0.005000000000002558 14.4)"/><use xlink:href="#T" transform="matrix(1,0,0,1,1030.6000000000001,864) translate(51.90500000000001 14.4)"/><use xlink:href="#R" transform="matrix(1,0,0,1,1030.6000000000001,864) translate(61.90500000000001 14.4)"/></g><path d="M859 880h-9.4m-9.38 0h-18.78m-9.4 0h-18.77m-9.38 0h-18.8m-9.38 0h-18.78m-9.4 0h-18.77m-9.4 0H680.6m-9.4 0H651.76m-10.07 0h-20.14m-10.07 0h-20.15m-10.07 0H561.1m-10.06 0H530.9m-10.08 0h-20.14m-10.07 0h-10.07" stroke="#333" fill="none"/><path d="M859.5 880.5h-.5v-1h.5" fill="#333"/><path d="M465.77 880l14.26-4.64v9.28z" stroke="#333" fill="#333"/><g><use xlink:href="#o" transform="matrix(1,0,0,1,567.0998448131286,884.0000000000001) translate(0.0049999999999954525 14.4)"/><use xlink:href="#U" transform="matrix(1,0,0,1,567.0998448131286,884.0000000000001) translate(65.55499999999999 14.4)"/><use xlink:href="#E" transform="matrix(1,0,0,1,567.0998448131286,884.0000000000001) translate(109.55499999999999 14.4)"/><use xlink:href="#t" transform="matrix(1,0,0,1,567.0998448131286,884.0000000000001) translate(134.555 14.4)"/></g><path d="M423.65 868c0-4.42 3.58-8 8-8h24c4.42 0 8 3.58 8 8v204c0 4.42-3.58 8-8 8h-24c-4.42 0-8-3.58-8-8z" stroke="#f2f2f2" fill="#ced4db"/><path d="M464.65 956.68h378.47" stroke="#333" fill="none"/><path d="M464.66 957.18h-.5v-1h.5" fill="#333"/><path d="M857.88 956.68l-14.26 4.64v-9.27z" stroke="#333" fill="#333"/><g><use xlink:href="#V" transform="matrix(1,0,0,1,561.0498448131286,931.0841063519066) translate(0.0049999999999954525 14.4)"/><use xlink:href="#W" transform="matrix(1,0,0,1,561.0498448131286,931.0841063519066) translate(68.805 14.4)"/><use xlink:href="#X" transform="matrix(1,0,0,1,561.0498448131286,931.0841063519066) translate(87.75500000000001 14.4)"/><use xlink:href="#E" transform="matrix(1,0,0,1,561.0498448131286,931.0841063519066) translate(121.655 14.4)"/><use xlink:href="#t" transform="matrix(1,0,0,1,561.0498448131286,931.0841063519066) translate(146.655 14.4)"/></g><path d="M901 979.57h27.5c6.63 0 12 5.37 12 12v13.87c0 6.63-5.37 12-12 12h-11.62" stroke="#333" fill="none"/><path d="M901 980.07h-.5v-1h.5" fill="#333"/><path d="M902.12 1017.44l14.26-4.64v9.27z" stroke="#333" fill="#333"/><g><use xlink:href="#Y" transform="matrix(1,0,0,1,948.5000000000001,987.7020507945051) translate(0.0049999999999954525 14.4)"/><use xlink:href="#Z" transform="matrix(1,0,0,1,948.5000000000001,987.7020507945051) translate(146.35500000000002 14.4)"/></g><defs><path fill="#333" d="M205 0l-28-72H64L36 0H1l101-248h38L239 0h-34zm-38-99l-47-123c-12 45-31 82-46 123h93" id="aa"/><path fill="#333" d="M24 0v-261h32V0H24" id="ab"/><path fill="#333" d="M59-47c-2 24 18 29 38 22v24C64 9 27 4 27-40v-127H5v-23h24l9-43h21v43h35v23H59v120" id="ac"/><path fill="#333" d="M100-194c63 0 86 42 84 106H49c0 40 14 67 53 68 26 1 43-12 49-29l28 8c-11 28-37 45-77 45C44 4 14-33 15-96c1-61 26-98 85-98zm52 81c6-60-76-77-97-28-3 7-6 17-6 28h103" id="ad"/><path fill="#333" d="M114-163C36-179 61-72 57 0H25l-1-190h30c1 12-1 29 2 39 6-27 23-49 58-41v29" id="ae"/><path fill="#333" d="M117-194c89-4 53 116 60 194h-32v-121c0-31-8-49-39-48C34-167 62-67 57 0H25l-1-190h30c1 10-1 24 2 32 11-22 29-35 61-36" id="af"/><path fill="#333" d="M141-36C126-15 110 5 73 4 37 3 15-17 15-53c-1-64 63-63 125-63 3-35-9-54-41-54-24 1-41 7-42 31l-33-3c5-37 33-52 76-52 45 0 72 20 72 64v82c-1 20 7 32 28 27v20c-31 9-61-2-59-35zM48-53c0 20 12 33 32 33 41-3 63-29 60-74-43 2-92-5-92 41" id="ag"/><path fill="#333" d="M24-231v-30h32v30H24zM24 0v-190h32V0H24" id="ah"/><path fill="#333" d="M108 0H70L1-190h34L89-25l56-165h34" id="ai"/><g id="a"><use transform="matrix(0.05,0,0,0.05,0,0)" xlink:href="#aa"/><use transform="matrix(0.05,0,0,0.05,12,0)" xlink:href="#ab"/><use transform="matrix(0.05,0,0,0.05,15.949999999999998,0)" xlink:href="#ac"/><use transform="matrix(0.05,0,0,0.05,20.95,0)" xlink:href="#ad"/><use transform="matrix(0.05,0,0,0.05,30.950000000000003,0)" xlink:href="#ae"/><use transform="matrix(0.05,0,0,0.05,36.9,0)" xlink:href="#af"/><use transform="matrix(0.05,0,0,0.05,46.9,0)" xlink:href="#ag"/><use transform="matrix(0.05,0,0,0.05,56.900000000000006,0)" xlink:href="#ac"/><use transform="matrix(0.05,0,0,0.05,61.900000000000006,0)" xlink:href="#ah"/><use transform="matrix(0.05,0,0,0.05,65.85,0)" xlink:href="#ai"/><use transform="matrix(0.05,0,0,0.05,74.85,0)" xlink:href="#ad"/></g><path fill="#333" d="M26 75v-336h71v23H56V52h41v23H26" id="aj"/><use transform="matrix(0.05,0,0,0.05,0,0)" xlink:href="#aj" id="b"/><path fill="#333" d="M185-189c-5-48-123-54-124 2 14 75 158 14 163 119 3 78-121 87-175 55-17-10-28-26-33-46l33-7c5 56 141 63 141-1 0-78-155-14-162-118-5-82 145-84 179-34 5 7 8 16 11 25" id="ak"/><g id="c"><use transform="matrix(0.05,0,0,0.05,0,0)" xlink:href="#ak"/><use transform="matrix(0.05,0,0,0.05,12,0)" xlink:href="#ah"/></g><path fill="#333" d="M96-169c-40 0-48 33-48 73s9 75 48 75c24 0 41-14 43-38l32 2c-6 37-31 61-74 61-59 0-76-41-82-99-10-93 101-131 147-64 4 7 5 14 7 22l-32 3c-4-21-16-35-41-35" id="al"/><path fill="#333" d="M106-169C34-169 62-67 57 0H25v-261h32l-1 103c12-21 28-36 61-36 89 0 53 116 60 194h-32v-121c2-32-8-49-39-48" id="am"/><path fill="#333" d="M30-248c87 1 191-15 191 75 0 78-77 80-158 76V0H30v-248zm33 125c57 0 124 11 124-50 0-59-68-47-124-48v98" id="an"/><path fill="#333" d="M100-194c62-1 85 37 85 99 1 63-27 99-86 99S16-35 15-95c0-66 28-99 85-99zM99-20c44 1 53-31 53-75 0-43-8-75-51-75s-53 32-53 75 10 74 51 75" id="ao"/><path fill="#333" d="M85-194c31 0 48 13 60 33l-1-100h32l1 261h-30c-2-10 0-23-3-31C134-8 116 4 85 4 32 4 16-35 15-94c0-66 23-100 70-100zm9 24c-40 0-46 34-46 75 0 40 6 74 45 74 42 0 51-32 51-76 0-42-9-74-50-73" id="ap"/><path fill="#333" d="M84 4C-5 8 30-112 23-190h32v120c0 31 7 50 39 49 72-2 45-101 50-169h31l1 190h-30c-1-10 1-25-2-33-11 22-28 36-60 37" id="aq"/><path fill="#333" d="M87 75C49 33 22-17 22-94c0-76 28-126 65-167h31c-38 41-64 92-64 168S80 34 118 75H87" id="ar"/><g id="d"><use transform="matrix(0.05,0,0,0.05,0,0)" xlink:href="#ae"/><use transform="matrix(0.05,0,0,0.05,5.95,0)" xlink:href="#ad"/><use transform="matrix(0.05,0,0,0.05,15.949999999999998,0)" xlink:href="#al"/><use transform="matrix(0.05,0,0,0.05,24.95,0)" xlink:href="#am"/><use transform="matrix(0.05,0,0,0.05,34.95,0)" xlink:href="#ad"/><use transform="matrix(0.05,0,0,0.05,44.95,0)" xlink:href="#ae"/><use transform="matrix(0.05,0,0,0.05,50.900000000000006,0)" xlink:href="#al"/><use transform="matrix(0.05,0,0,0.05,59.900000000000006,0)" xlink:href="#am"/><use transform="matrix(0.05,0,0,0.05,69.9,0)" xlink:href="#ad"/><use transform="matrix(0.05,0,0,0.05,79.9,0)" xlink:href="#ae"/><use transform="matrix(0.05,0,0,0.05,85.85000000000001,0)" xlink:href="#an"/><use transform="matrix(0.05,0,0,0.05,97.85000000000001,0)" xlink:href="#ae"/><use transform="matrix(0.05,0,0,0.05,103.80000000000001,0)" xlink:href="#ao"/><use transform="matrix(0.05,0,0,0.05,113.80000000000001,0)" xlink:href="#ap"/><use transform="matrix(0.05,0,0,0.05,123.80000000000001,0)" xlink:href="#aq"/><use transform="matrix(0.05,0,0,0.05,133.8,0)" xlink:href="#ah"/><use transform="matrix(0.05,0,0,0.05,137.75,0)" xlink:href="#ac"/><use transform="matrix(0.05,0,0,0.05,142.75,0)" xlink:href="#ar"/></g><path fill="#333" d="M33-261c38 41 65 92 65 168S71 34 33 75H2C39 34 66-17 66-93S39-220 2-261h31" id="as"/><use transform="matrix(0.05,0,0,0.05,0,0)" xlink:href="#as" id="e"/><path fill="#333" d="M18-150v-26h174v26H18zm0 90v-26h174v26H18" id="at"/><use transform="matrix(0.05,0,0,0.05,0,0)" xlink:href="#at" id="f"/><path fill="#333" d="M47-170H22l-4-78h33" id="au"/><path fill="#333" d="M190 0L58-211 59 0H30v-248h39L202-35l-2-213h31V0h-41" id="av"/><path fill="#333" d="M232-93c-1 65-40 97-104 97C67 4 28-28 28-90v-158h33c8 89-33 224 67 224 102 0 64-133 71-224h33v155" id="aw"/><path fill="#333" d="M30 0v-248h33v221h125V0H30" id="ax"/><g id="g"><use transform="matrix(0.05,0,0,0.05,0,0)" xlink:href="#au"/><use transform="matrix(0.05,0,0,0.05,3.4000000000000004,0)" xlink:href="#av"/><use transform="matrix(0.05,0,0,0.05,16.35,0)" xlink:href="#aw"/><use transform="matrix(0.05,0,0,0.05,29.3,0)" xlink:href="#ax"/><use transform="matrix(0.05,0,0,0.05,39.300000000000004,0)" xlink:href="#ax"/><use transform="matrix(0.05,0,0,0.05,49.300000000000004,0)" xlink:href="#au"/></g><path fill="#333" d="M3 75V52h41v-290H3v-23h71V75H3" id="ay"/><use transform="matrix(0.05,0,0,0.05,0,0)" xlink:href="#ay" id="h"/><g id="i"><use transform="matrix(0.05,0,0,0.05,0,0)" xlink:href="#ak"/><use transform="matrix(0.05,0,0,0.05,12,0)" xlink:href="#ah"/><use transform="matrix(0.05,0,0,0.05,15.949999999999998,0)" xlink:href="#af"/><use transform="matrix(0.05,0,0,0.05,25.950000000000003,0)" xlink:href="#ao"/><use transform="matrix(0.05,0,0,0.05,35.95,0)" xlink:href="#af"/></g><path fill="#333" d="M23-100v-36l175-74v27L47-118l151 64v27" id="az"/><g id="j"><use transform="matrix(0.04938271604938272,0,0,0.04938271604938272,0,0)" xlink:href="#az"/><use transform="matrix(0.04938271604938272,0,0,0.04938271604938272,10.370370370370372,0)" xlink:href="#az"/></g><path fill="#333" d="M194-120c59 52 2 134-86 124-53-6-90-18-98-63l31-7c8 30 29 43 70 43 46 0 84-17 71-62-32-43-135-20-137-98-3-89 178-90 191-16l-30 9c-8-48-127-53-127 5 0 53 81 35 115 65" id="aA"/><path fill="#333" d="M198-190L69 30C53 58 25 83-20 72c4-11-1-27 19-22 33-1 43-29 59-52L20-190h32L79-34l84-156h35" id="aB"/><path fill="#333" d="M55-144c13 50 104 24 104 88C159 21 15 23 1-39l26-10c6 40 102 42 102-4-13-50-104-23-104-87 0-71 143-71 148-8l-29 4c-5-35-85-37-89 0" id="aC"/><path fill="#333" d="M51-54c-9 22 5 41 31 30L79-1C43 14 10-4 19-52l22-115H19l5-23h22l19-43h21l-9 43h35l-4 23H73" id="aD"/><path fill="#333" d="M111-194c62-3 86 47 72 106H45c-7 38 6 69 45 68 27-1 43-14 53-32l24 11C152-15 129 4 87 4 38 3 12-23 12-71c0-70 32-119 99-123zm44 81c14-66-71-72-95-28-4 8-8 17-11 28h106" id="aE"/><path fill="#333" d="M248-111c6-24 9-61-24-58-72 9-57 108-77 169h-31l26-142c3-37-50-30-64-10C52-115 50-51 37 0H6l36-190h30c-1 10-6 24-4 32 13-43 101-52 105 5 13-22 29-41 61-41 90 0 28 129 23 194h-31" id="aF"/><g id="k"><use transform="matrix(0.04938271604938272,0,0,0.04938271604938272,0,0)" xlink:href="#aA"/><use transform="matrix(0.04938271604938272,0,0,0.04938271604938272,11.851851851851853,0)" xlink:href="#aB"/><use transform="matrix(0.04938271604938272,0,0,0.04938271604938272,20.74074074074074,0)" xlink:href="#aC"/><use transform="matrix(0.04938271604938272,0,0,0.04938271604938272,29.629629629629633,0)" xlink:href="#aD"/><use transform="matrix(0.04938271604938272,0,0,0.04938271604938272,34.5679012345679,0)" xlink:href="#aE"/><use transform="matrix(0.04938271604938272,0,0,0.04938271604938272,44.44444444444444,0)" xlink:href="#aF"/></g><path fill="#333" d="M23-27v-27l151-64-151-65v-27l175 74v36" id="aG"/><g id="l"><use transform="matrix(0.04938271604938272,0,0,0.04938271604938272,0,0)" xlink:href="#aG"/><use transform="matrix(0.04938271604938272,0,0,0.04938271604938272,10.370370370370372,0)" xlink:href="#aG"/></g><path fill="#333" d="M52-101C46-14 166-7 216-51l9-45h-74l6-28h105l-18 87C217-12 181 4 130 4 60 4 18-31 18-101c0-106 78-167 188-146 30 6 48 27 59 54l-34 9c-10-26-31-41-67-40-75 1-107 50-112 123" id="aH"/><path fill="#333" d="M50-231l6-30h32l-6 30H50zM6 0l37-190h31L37 0H6" id="aI"/><path fill="#333" d="M30-147c31-64 166-65 159 27C183-49 158 1 86 4 9 8 1-88 30-147zM88-20c53 0 68-48 68-100 0-31-11-51-44-50-52 1-68 46-68 97 0 32 13 53 44 53" id="aJ"/><path fill="#333" d="M67-158c22-48 132-52 116 29L158 0h-32l25-140c3-38-53-32-70-12C52-117 51-52 38 0H6l36-190h30" id="aK"/><path fill="#333" d="M44-68c0 29 11 47 38 47 30 0 42-19 51-41l28 9C148-21 126 4 82 4 31 4 10-29 12-85c3-77 74-140 146-93 12 8 15 23 18 40l-31 5c-1-22-13-36-36-36-52 0-65 49-65 101" id="aL"/><path fill="#333" d="M127 0L80-88 50-66 37 0H6l51-261h31L57-100l99-90h39l-93 82L161 0h-34" id="aM"/><g id="m"><use transform="matrix(0.04938271604938272,0,0,0.04938271604938272,0,0)" xlink:href="#aH"/><use transform="matrix(0.04938271604938272,0,0,0.04938271604938272,13.827160493827162,0)" xlink:href="#aE"/><use transform="matrix(0.04938271604938272,0,0,0.04938271604938272,23.703703703703706,0)" xlink:href="#aC"/><use transform="matrix(0.04938271604938272,0,0,0.04938271604938272,32.592592592592595,0)" xlink:href="#aD"/><use transform="matrix(0.04938271604938272,0,0,0.04938271604938272,37.53086419753087,0)" xlink:href="#aI"/><use transform="matrix(0.04938271604938272,0,0,0.04938271604938272,41.4320987654321,0)" xlink:href="#aJ"/><use transform="matrix(0.04938271604938272,0,0,0.04938271604938272,51.308641975308646,0)" xlink:href="#aK"/><use transform="matrix(0.04938271604938272,0,0,0.04938271604938272,61.18518518518519,0)" xlink:href="#aA"/><use transform="matrix(0.04938271604938272,0,0,0.04938271604938272,73.03703703703704,0)" xlink:href="#aD"/><use transform="matrix(0.04938271604938272,0,0,0.04938271604938272,77.97530864197532,0)" xlink:href="#aJ"/><use transform="matrix(0.04938271604938272,0,0,0.04938271604938272,87.85185185185186,0)" xlink:href="#aL"/><use transform="matrix(0.04938271604938272,0,0,0.04938271604938272,96.74074074074075,0)" xlink:href="#aM"/><path fill="#333" d="M-.9 1.23h107.42v1.3H-.88z"/></g><path fill="#333" d="M30 0v-248h187v28H63v79h144v27H63v87h162V0H30" id="aN"/><path fill="#333" d="M210-169c-67 3-38 105-44 169h-31v-121c0-29-5-50-35-48C34-165 62-65 56 0H25l-1-190h30c1 10-1 24 2 32 10-44 99-50 107 0 11-21 27-35 58-36 85-2 47 119 55 194h-31v-121c0-29-5-49-35-48" id="aO"/><path fill="#333" d="M115-194c55 1 70 41 70 98S169 2 115 4C84 4 66-9 55-30l1 105H24l-1-265h31l2 30c10-21 28-34 59-34zm-8 174c40 0 45-34 45-75s-6-73-45-74c-42 0-51 32-51 76 0 43 10 73 51 73" id="aP"/><path fill="#333" d="M179-190L93 31C79 59 56 82 12 73V49c39 6 53-20 64-50L1-190h34L92-34l54-156h33" id="aQ"/><path fill="#333" d="M100-194c63 0 86 42 84 106H49c0 40 14 67 53 68 26 1 43-12 49-29l28 8c-11 28-37 45-77 45C44 4 14-33 15-96c1-61 26-98 85-98zm52 81c6-60-76-77-97-28-3 7-6 17-6 28h103zm-74-98c8-23 27-35 38-54h36v5l-58 49H78" id="aR"/><g id="n"><use transform="matrix(0.05,0,0,0.05,0,0)" xlink:href="#aN"/><use transform="matrix(0.05,0,0,0.05,12,0)" xlink:href="#aO"/><use transform="matrix(0.05,0,0,0.05,26.950000000000003,0)" xlink:href="#aP"/><use transform="matrix(0.05,0,0,0.05,36.95,0)" xlink:href="#ab"/><use transform="matrix(0.05,0,0,0.05,40.900000000000006,0)" xlink:href="#ao"/><use transform="matrix(0.05,0,0,0.05,50.900000000000006,0)" xlink:href="#aQ"/><use transform="matrix(0.05,0,0,0.05,59.900000000000006,0)" xlink:href="#aR"/></g><path fill="#333" d="M101-234c-31-9-42 10-38 44h38v23H63V0H32v-167H5v-23h27c-7-52 17-82 69-68v24" id="aS"/><g id="o"><use transform="matrix(0.05,0,0,0.05,0,0)" xlink:href="#aa"/><use transform="matrix(0.05,0,0,0.05,12,0)" xlink:href="#aS"/><use transform="matrix(0.05,0,0,0.05,16.65,0)" xlink:href="#aS"/><use transform="matrix(0.05,0,0,0.05,21.65,0)" xlink:href="#ah"/><use transform="matrix(0.05,0,0,0.05,25.599999999999998,0)" xlink:href="#al"/><use transform="matrix(0.05,0,0,0.05,34.599999999999994,0)" xlink:href="#am"/><use transform="matrix(0.05,0,0,0.05,44.599999999999994,0)" xlink:href="#ad"/><use transform="matrix(0.05,0,0,0.05,54.599999999999994,0)" xlink:href="#ae"/></g><path fill="#333" d="M177-190C167-65 218 103 67 71c-23-6-38-20-44-43l32-5c15 47 100 32 89-28v-30C133-14 115 1 83 1 29 1 15-40 15-95c0-56 16-97 71-98 29-1 48 16 59 35 1-10 0-23 2-32h30zM94-22c36 0 50-32 50-73 0-42-14-75-50-75-39 0-46 34-46 75s6 73 46 73" id="aT"/><g id="p"><use transform="matrix(0.05,0,0,0.05,0,0)" xlink:href="#an"/><use transform="matrix(0.05,0,0,0.05,12,0)" xlink:href="#ag"/><use transform="matrix(0.05,0,0,0.05,22,0)" xlink:href="#aT"/><use transform="matrix(0.05,0,0,0.05,32,0)" xlink:href="#ad"/></g><g id="q"><use transform="matrix(0.05,0,0,0.05,0,0)" xlink:href="#ap"/><use transform="matrix(0.05,0,0,0.05,10,0)" xlink:href="#ad"/></g><path fill="#333" d="M240 0l2-218c-23 76-54 145-80 218h-23L58-218 59 0H30v-248h44l77 211c21-75 51-140 76-211h43V0h-30" id="aU"/><g id="r"><use transform="matrix(0.05,0,0,0.05,0,0)" xlink:href="#aU"/><use transform="matrix(0.05,0,0,0.05,14.950000000000001,0)" xlink:href="#ao"/><use transform="matrix(0.05,0,0,0.05,24.950000000000003,0)" xlink:href="#ap"/><use transform="matrix(0.05,0,0,0.05,34.95,0)" xlink:href="#ah"/><use transform="matrix(0.05,0,0,0.05,38.900000000000006,0)" xlink:href="#aS"/><use transform="matrix(0.05,0,0,0.05,43.900000000000006,0)" xlink:href="#ah"/><use transform="matrix(0.05,0,0,0.05,47.85000000000001,0)" xlink:href="#ad"/><use transform="matrix(0.05,0,0,0.05,57.85,0)" xlink:href="#ae"/></g><g id="s"><use transform="matrix(0.05,0,0,0.05,0,0)" xlink:href="#aq"/><use transform="matrix(0.05,0,0,0.05,10,0)" xlink:href="#af"/></g><g id="t"><use transform="matrix(0.05,0,0,0.05,0,0)" xlink:href="#aP"/><use transform="matrix(0.05,0,0,0.05,10,0)" xlink:href="#ae"/><use transform="matrix(0.05,0,0,0.05,15.949999999999998,0)" xlink:href="#ao"/><use transform="matrix(0.05,0,0,0.05,25.950000000000003,0)" xlink:href="#ap"/><use transform="matrix(0.05,0,0,0.05,35.95,0)" xlink:href="#aq"/><use transform="matrix(0.05,0,0,0.05,45.95,0)" xlink:href="#ah"/><use transform="matrix(0.05,0,0,0.05,49.900000000000006,0)" xlink:href="#ac"/></g><path fill="#333" d="M30-248c118-7 216 8 213 122C240-48 200 0 122 0H30v-248zM63-27c89 8 146-16 146-99s-60-101-146-95v194" id="aV"/><g id="u"><use transform="matrix(0.04938271604938272,0,0,0.04938271604938272,0,0)" xlink:href="#aV"/><use transform="matrix(0.04938271604938272,0,0,0.04938271604938272,12.790123456790125,0)" xlink:href="#ad"/><use transform="matrix(0.04938271604938272,0,0,0.04938271604938272,22.66666666666667,0)" xlink:href="#aO"/><use transform="matrix(0.04938271604938272,0,0,0.04938271604938272,37.4320987654321,0)" xlink:href="#ag"/><use transform="matrix(0.04938271604938272,0,0,0.04938271604938272,47.308641975308646,0)" xlink:href="#af"/><use transform="matrix(0.04938271604938272,0,0,0.04938271604938272,57.18518518518519,0)" xlink:href="#ap"/><use transform="matrix(0.04938271604938272,0,0,0.04938271604938272,67.06172839506173,0)" xlink:href="#ad"/></g><g id="v"><use transform="matrix(0.04938271604938272,0,0,0.04938271604938272,0,0)" xlink:href="#ap"/><use transform="matrix(0.04938271604938272,0,0,0.04938271604938272,9.876543209876544,0)" xlink:href="#ad"/></g><g id="w"><use transform="matrix(0.04938271604938272,0,0,0.04938271604938272,0,0)" xlink:href="#aU"/><use transform="matrix(0.04938271604938272,0,0,0.04938271604938272,14.765432098765434,0)" xlink:href="#ao"/><use transform="matrix(0.04938271604938272,0,0,0.04938271604938272,24.641975308641978,0)" xlink:href="#ap"/><use transform="matrix(0.04938271604938272,0,0,0.04938271604938272,34.51851851851852,0)" xlink:href="#ah"/><use transform="matrix(0.04938271604938272,0,0,0.04938271604938272,38.41975308641975,0)" xlink:href="#aS"/><use transform="matrix(0.04938271604938272,0,0,0.04938271604938272,43.358024691358025,0)" xlink:href="#ah"/><use transform="matrix(0.04938271604938272,0,0,0.04938271604938272,47.25925925925926,0)" xlink:href="#ad"/><use transform="matrix(0.04938271604938272,0,0,0.04938271604938272,57.135802469135804,0)" xlink:href="#ae"/></g><path fill="#333" d="M135-143c-3-34-86-38-87 0 15 53 115 12 119 90S17 21 10-45l28-5c4 36 97 45 98 0-10-56-113-15-118-90-4-57 82-63 122-42 12 7 21 19 24 35" id="aW"/><g id="x"><use transform="matrix(0.04938271604938272,0,0,0.04938271604938272,0,0)" xlink:href="#ab"/><use transform="matrix(0.04938271604938272,0,0,0.04938271604938272,3.901234567901235,0)" xlink:href="#ad"/><use transform="matrix(0.04938271604938272,0,0,0.04938271604938272,13.777777777777779,0)" xlink:href="#aW"/></g><g id="y"><use transform="matrix(0.04938271604938272,0,0,0.04938271604938272,0,0)" xlink:href="#ah"/><use transform="matrix(0.04938271604938272,0,0,0.04938271604938272,3.901234567901235,0)" xlink:href="#af"/><use transform="matrix(0.04938271604938272,0,0,0.04938271604938272,13.777777777777779,0)" xlink:href="#aS"/><use transform="matrix(0.04938271604938272,0,0,0.04938271604938272,18.71604938271605,0)" xlink:href="#ao"/><use transform="matrix(0.04938271604938272,0,0,0.04938271604938272,28.592592592592595,0)" xlink:href="#aW"/></g><g id="z"><use transform="matrix(0.04938271604938272,0,0,0.04938271604938272,0,0)" xlink:href="#ap"/><use transform="matrix(0.04938271604938272,0,0,0.04938271604938272,9.876543209876544,0)" xlink:href="#au"/><use transform="matrix(0.04938271604938272,0,0,0.04938271604938272,13.23456790123457,0)" xlink:href="#aq"/><use transform="matrix(0.04938271604938272,0,0,0.04938271604938272,23.111111111111114,0)" xlink:href="#af"/></g><g id="A"><use transform="matrix(0.04938271604938272,0,0,0.04938271604938272,0,0)" xlink:href="#aP"/><use transform="matrix(0.04938271604938272,0,0,0.04938271604938272,9.876543209876544,0)" xlink:href="#ae"/><use transform="matrix(0.04938271604938272,0,0,0.04938271604938272,15.753086419753087,0)" xlink:href="#ao"/><use transform="matrix(0.04938271604938272,0,0,0.04938271604938272,25.629629629629633,0)" xlink:href="#ap"/><use transform="matrix(0.04938271604938272,0,0,0.04938271604938272,35.50617283950618,0)" xlink:href="#aq"/><use transform="matrix(0.04938271604938272,0,0,0.04938271604938272,45.38271604938272,0)" xlink:href="#ah"/><use transform="matrix(0.04938271604938272,0,0,0.04938271604938272,49.283950617283956,0)" xlink:href="#ac"/></g><g id="B"><use transform="matrix(0.05,0,0,0.05,0,0)" xlink:href="#aN"/><use transform="matrix(0.05,0,0,0.05,12,0)" xlink:href="#af"/><use transform="matrix(0.05,0,0,0.05,22,0)" xlink:href="#ai"/><use transform="matrix(0.05,0,0,0.05,31,0)" xlink:href="#ao"/><use transform="matrix(0.05,0,0,0.05,41,0)" xlink:href="#ah"/></g><g id="C"><use transform="matrix(0.05,0,0,0.05,0,0)" xlink:href="#ab"/><use transform="matrix(0.05,0,0,0.05,3.95,0)" xlink:href="#ag"/></g><g id="D"><use transform="matrix(0.05,0,0,0.05,0,0)" xlink:href="#ae"/><use transform="matrix(0.05,0,0,0.05,5.95,0)" xlink:href="#ad"/><use transform="matrix(0.05,0,0,0.05,15.949999999999998,0)" xlink:href="#aS"/></g><g id="E"><use transform="matrix(0.05,0,0,0.05,0,0)" xlink:href="#ap"/><use transform="matrix(0.05,0,0,0.05,10,0)" xlink:href="#aq"/></g><path fill="#333" d="M24-248c120-7 223 5 221 122C244-46 201 0 124 0H24v-248zM76-40c74 7 117-18 117-86 0-67-45-88-117-82v168" id="aX"/><path fill="#333" d="M169-182c-1-43-94-46-97-3 18 66 151 10 154 114 3 95-165 93-204 36-6-8-10-19-12-30l50-8c3 46 112 56 116 5-17-69-150-10-154-114-4-87 153-88 188-35 5 8 8 18 10 28" id="aY"/><g id="F"><use transform="matrix(0.09320987654320984,0,0,0.09320987654320984,0,0)" xlink:href="#aX"/><use transform="matrix(0.09320987654320984,0,0,0.09320987654320984,24.141358024691346,0)" xlink:href="#aY"/></g><path fill="#333" d="M35-132v-50h50v50H35zM35 0v-49h50V0H35" id="aZ"/><use transform="matrix(0.09320987654320984,0,0,0.09320987654320984,0,0)" xlink:href="#aZ" id="G"/><path fill="#333" d="M230 0l2-204L168 0h-37L68-204 70 0H24v-248h70l56 185 57-185h69V0h-46" id="ba"/><path fill="#333" d="M110-194c64 0 96 36 96 99 0 64-35 99-97 99-61 0-95-36-95-99 0-62 34-99 96-99zm-1 164c35 0 45-28 45-65 0-40-10-65-43-65-34 0-45 26-45 65 0 36 10 65 43 65" id="bb"/><path fill="#333" d="M88-194c31-1 46 15 58 34l-1-101h50l1 261h-48c-2-10 0-23-3-31C134-8 116 4 84 4 32 4 16-41 15-95c0-56 19-97 73-99zm17 164c33 0 40-30 41-66 1-37-9-64-41-64s-38 30-39 65c0 43 13 65 39 65" id="bc"/><path fill="#333" d="M25-224v-37h50v37H25zM25 0v-190h50V0H25" id="bd"/><path fill="#333" d="M121-226c-27-7-43 5-38 36h38v33H83V0H34v-157H6v-33h28c-9-59 32-81 87-68v32" id="be"/><path fill="#333" d="M185-48c-13 30-37 53-82 52C43 2 14-33 14-96s30-98 90-98c62 0 83 45 84 108H66c0 31 8 55 39 56 18 0 30-7 34-22zm-45-69c5-46-57-63-70-21-2 6-4 13-4 21h74" id="bf"/><path fill="#333" d="M135-150c-39-12-60 13-60 57V0H25l-1-190h47c2 13-1 29 3 40 6-28 27-53 61-41v41" id="bg"/><g id="H"><use transform="matrix(0.09320987654320984,0,0,0.09320987654320984,0,0)" xlink:href="#ba"/><use transform="matrix(0.09320987654320984,0,0,0.09320987654320984,27.869753086419742,0)" xlink:href="#bb"/><use transform="matrix(0.09320987654320984,0,0,0.09320987654320984,48.28271604938269,0)" xlink:href="#bc"/><use transform="matrix(0.09320987654320984,0,0,0.09320987654320984,68.69567901234565,0)" xlink:href="#bd"/><use transform="matrix(0.09320987654320984,0,0,0.09320987654320984,78.01666666666664,0)" xlink:href="#be"/><use transform="matrix(0.09320987654320984,0,0,0.09320987654320984,89.10864197530861,0)" xlink:href="#bd"/><use transform="matrix(0.09320987654320984,0,0,0.09320987654320984,98.4296296296296,0)" xlink:href="#bf"/><use transform="matrix(0.09320987654320984,0,0,0.09320987654320984,117.07160493827158,0)" xlink:href="#bg"/></g><path fill="#333" d="M135-194c53 0 70 44 70 98 0 56-19 98-73 100-31 1-45-17-59-34 3 33 2 69 2 105H25l-1-265h48c2 10 0 23 3 31 11-24 29-35 60-35zM114-30c33 0 39-31 40-66 0-38-9-64-40-64-56 0-55 130 0 130" id="bh"/><path fill="#333" d="M85 4C-2 5 27-109 22-190h50c7 57-23 150 33 157 60-5 35-97 40-157h50l1 190h-47c-2-12 1-28-3-38-12 25-28 42-61 42" id="bi"/><path fill="#333" d="M115-3C79 11 28 4 28-45v-112H4v-33h27l15-45h31v45h36v33H77v99c-1 23 16 31 38 25v30" id="bj"/><g id="I"><use transform="matrix(0.09320987654320984,0,0,0.09320987654320984,0,0)" xlink:href="#bh"/><use transform="matrix(0.09320987654320984,0,0,0.09320987654320984,20.412962962962954,0)" xlink:href="#bg"/><use transform="matrix(0.09320987654320984,0,0,0.09320987654320984,33.46234567901233,0)" xlink:href="#bb"/><use transform="matrix(0.09320987654320984,0,0,0.09320987654320984,53.87530864197529,0)" xlink:href="#bc"/><use transform="matrix(0.09320987654320984,0,0,0.09320987654320984,74.28827160493823,0)" xlink:href="#bi"/><use transform="matrix(0.09320987654320984,0,0,0.09320987654320984,94.70123456790118,0)" xlink:href="#bd"/><use transform="matrix(0.09320987654320984,0,0,0.09320987654320984,104.02222222222218,0)" xlink:href="#bj"/></g><g id="J"><use transform="matrix(0.05,0,0,0.05,0,0)" xlink:href="#ae"/><use transform="matrix(0.05,0,0,0.05,5.95,0)" xlink:href="#ad"/><use transform="matrix(0.05,0,0,0.05,15.949999999999998,0)" xlink:href="#al"/><use transform="matrix(0.05,0,0,0.05,24.95,0)" xlink:href="#am"/><use transform="matrix(0.05,0,0,0.05,34.95,0)" xlink:href="#ad"/><use transform="matrix(0.05,0,0,0.05,44.95,0)" xlink:href="#ae"/><use transform="matrix(0.05,0,0,0.05,50.900000000000006,0)" xlink:href="#al"/><use transform="matrix(0.05,0,0,0.05,59.900000000000006,0)" xlink:href="#am"/><use transform="matrix(0.05,0,0,0.05,69.9,0)" xlink:href="#ad"/><use transform="matrix(0.05,0,0,0.05,79.9,0)" xlink:href="#ae"/><use transform="matrix(0.05,0,0,0.05,85.85000000000001,0)" xlink:href="#an"/><use transform="matrix(0.05,0,0,0.05,97.85000000000001,0)" xlink:href="#ae"/><use transform="matrix(0.05,0,0,0.05,103.80000000000001,0)" xlink:href="#ao"/><use transform="matrix(0.05,0,0,0.05,113.80000000000001,0)" xlink:href="#ap"/><use transform="matrix(0.05,0,0,0.05,123.80000000000001,0)" xlink:href="#aq"/><use transform="matrix(0.05,0,0,0.05,133.8,0)" xlink:href="#ah"/><use transform="matrix(0.05,0,0,0.05,137.75,0)" xlink:href="#ac"/><use transform="matrix(0.05,0,0,0.05,142.75,0)" xlink:href="#ar"/><use transform="matrix(0.05,0,0,0.05,148.7,0)" xlink:href="#ae"/><use transform="matrix(0.05,0,0,0.05,154.64999999999998,0)" xlink:href="#ad"/><use transform="matrix(0.05,0,0,0.05,164.64999999999998,0)" xlink:href="#aS"/><use transform="matrix(0.05,0,0,0.05,169.64999999999998,0)" xlink:href="#an"/><use transform="matrix(0.05,0,0,0.05,181.64999999999998,0)" xlink:href="#as"/></g><g id="K"><use transform="matrix(0.05,0,0,0.05,0,0)" xlink:href="#aU"/><use transform="matrix(0.05,0,0,0.05,14.950000000000001,0)" xlink:href="#ad"/><use transform="matrix(0.05,0,0,0.05,24.950000000000003,0)" xlink:href="#aW"/><use transform="matrix(0.05,0,0,0.05,33.95,0)" xlink:href="#aW"/><use transform="matrix(0.05,0,0,0.05,42.95,0)" xlink:href="#ag"/><use transform="matrix(0.05,0,0,0.05,52.95,0)" xlink:href="#aT"/><use transform="matrix(0.05,0,0,0.05,62.95,0)" xlink:href="#ad"/></g><g id="L"><use transform="matrix(0.05,0,0,0.05,0,0)" xlink:href="#aN"/><use transform="matrix(0.05,0,0,0.05,12,0)" xlink:href="#ae"/><use transform="matrix(0.05,0,0,0.05,17.95,0)" xlink:href="#ae"/><use transform="matrix(0.05,0,0,0.05,23.9,0)" xlink:href="#ao"/><use transform="matrix(0.05,0,0,0.05,33.9,0)" xlink:href="#ae"/></g><g id="M"><use transform="matrix(0.05,0,0,0.05,0,0)" xlink:href="#aU"/><use transform="matrix(0.05,0,0,0.05,14.950000000000001,0)" xlink:href="#ao"/><use transform="matrix(0.05,0,0,0.05,24.950000000000003,0)" xlink:href="#ap"/><use transform="matrix(0.05,0,0,0.05,34.95,0)" xlink:href="#ah"/><use transform="matrix(0.05,0,0,0.05,38.900000000000006,0)" xlink:href="#aS"/><use transform="matrix(0.05,0,0,0.05,43.900000000000006,0)" xlink:href="#ah"/><use transform="matrix(0.05,0,0,0.05,47.85000000000001,0)" xlink:href="#al"/><use transform="matrix(0.05,0,0,0.05,56.85,0)" xlink:href="#ag"/><use transform="matrix(0.05,0,0,0.05,66.85000000000001,0)" xlink:href="#ac"/><use transform="matrix(0.05,0,0,0.05,71.85000000000001,0)" xlink:href="#ah"/><use transform="matrix(0.05,0,0,0.05,75.80000000000001,0)" xlink:href="#ao"/><use transform="matrix(0.05,0,0,0.05,85.80000000000001,0)" xlink:href="#af"/></g><g id="N"><use transform="matrix(0.05,0,0,0.05,0,0)" xlink:href="#ag"/><use transform="matrix(0.05,0,0,0.05,10,0)" xlink:href="#ai"/><use transform="matrix(0.05,0,0,0.05,19,0)" xlink:href="#ad"/><use transform="matrix(0.05,0,0,0.05,29,0)" xlink:href="#al"/></g><path fill="#333" d="M100-194c63 0 86 42 84 106H49c0 40 14 67 53 68 26 1 43-12 49-29l28 8c-11 28-37 45-77 45C44 4 14-33 15-96c1-61 26-98 85-98zm52 81c6-60-76-77-97-28-3 7-6 17-6 28h103zm-36-98l-58-49v-5h36c12 19 30 32 38 54h-16" id="bk"/><g id="O"><use transform="matrix(0.05,0,0,0.05,0,0)" xlink:href="#ak"/><use transform="matrix(0.05,0,0,0.05,12,0)" xlink:href="#aq"/><use transform="matrix(0.05,0,0,0.05,22,0)" xlink:href="#aW"/><use transform="matrix(0.05,0,0,0.05,31,0)" xlink:href="#aW"/><use transform="matrix(0.05,0,0,0.05,40,0)" xlink:href="#bk"/><use transform="matrix(0.05,0,0,0.05,50,0)" xlink:href="#aW"/></g><path d="M30-248c87 1 191-15 191 75 0 78-77 80-158 76V0H30v-248zm33 125c57 0 124 11 124-50 0-59-68-47-124-48v98" id="bl"/><path d="M114-163C36-179 61-72 57 0H25l-1-190h30c1 12-1 29 2 39 6-27 23-49 58-41v29" id="bm"/><path d="M100-194c62-1 85 37 85 99 1 63-27 99-86 99S16-35 15-95c0-66 28-99 85-99zM99-20c44 1 53-31 53-75 0-43-8-75-51-75s-53 32-53 75 10 74 51 75" id="bn"/><path d="M85-194c31 0 48 13 60 33l-1-100h32l1 261h-30c-2-10 0-23-3-31C134-8 116 4 85 4 32 4 16-35 15-94c0-66 23-100 70-100zm9 24c-40 0-46 34-46 75 0 40 6 74 45 74 42 0 51-32 51-76 0-42-9-74-50-73" id="bo"/><path d="M84 4C-5 8 30-112 23-190h32v120c0 31 7 50 39 49 72-2 45-101 50-169h31l1 190h-30c-1-10 1-25-2-33-11 22-28 36-60 37" id="bp"/><path d="M24-231v-30h32v30H24zM24 0v-190h32V0H24" id="bq"/><path d="M59-47c-2 24 18 29 38 22v24C64 9 27 4 27-40v-127H5v-23h24l9-43h21v43h35v23H59v120" id="br"/><g id="P"><use transform="matrix(0.05,0,0,0.05,0,0)" xlink:href="#bl"/><use transform="matrix(0.05,0,0,0.05,12,0)" xlink:href="#bm"/><use transform="matrix(0.05,0,0,0.05,17.95,0)" xlink:href="#bn"/><use transform="matrix(0.05,0,0,0.05,27.950000000000003,0)" xlink:href="#bo"/><use transform="matrix(0.05,0,0,0.05,37.95,0)" xlink:href="#bp"/><use transform="matrix(0.05,0,0,0.05,47.95,0)" xlink:href="#bq"/><use transform="matrix(0.05,0,0,0.05,51.900000000000006,0)" xlink:href="#br"/><path d="M-.9 1.25h58.7v1.32H-.9z"/></g><path fill="#333" d="M33 0v-248h34V0H33" id="bs"/><g id="Q"><use transform="matrix(0.05,0,0,0.05,0,0)" xlink:href="#bs"/><use transform="matrix(0.05,0,0,0.05,5,0)" xlink:href="#af"/><use transform="matrix(0.05,0,0,0.05,15,0)" xlink:href="#aW"/><use transform="matrix(0.05,0,0,0.05,24,0)" xlink:href="#ac"/><use transform="matrix(0.05,0,0,0.05,29,0)" xlink:href="#ag"/><use transform="matrix(0.05,0,0,0.05,39,0)" xlink:href="#af"/><use transform="matrix(0.05,0,0,0.05,49,0)" xlink:href="#al"/><use transform="matrix(0.05,0,0,0.05,58,0)" xlink:href="#ad"/></g><g id="R"><use transform="matrix(0.05,0,0,0.05,0,0)" xlink:href="#an"/><use transform="matrix(0.05,0,0,0.05,12,0)" xlink:href="#ae"/><use transform="matrix(0.05,0,0,0.05,17.95,0)" xlink:href="#ao"/><use transform="matrix(0.05,0,0,0.05,27.950000000000003,0)" xlink:href="#ap"/><use transform="matrix(0.05,0,0,0.05,37.95,0)" xlink:href="#aq"/><use transform="matrix(0.05,0,0,0.05,47.95,0)" xlink:href="#ah"/><use transform="matrix(0.05,0,0,0.05,51.900000000000006,0)" xlink:href="#ac"/></g><g id="S"><use transform="matrix(0.05,0,0,0.05,0,0)" xlink:href="#ae"/><use transform="matrix(0.05,0,0,0.05,5.95,0)" xlink:href="#ad"/><use transform="matrix(0.05,0,0,0.05,15.949999999999998,0)" xlink:href="#ac"/><use transform="matrix(0.05,0,0,0.05,20.95,0)" xlink:href="#ao"/><use transform="matrix(0.05,0,0,0.05,30.950000000000003,0)" xlink:href="#aq"/><use transform="matrix(0.05,0,0,0.05,40.95,0)" xlink:href="#ae"/></g><path fill="#333" d="M33-154v-36h34v36H33zM33 0v-36h34V0H33" id="bt"/><use transform="matrix(0.05,0,0,0.05,0,0)" xlink:href="#bt" id="T"/><g id="U"><use transform="matrix(0.05,0,0,0.05,0,0)" xlink:href="#bs"/><use transform="matrix(0.05,0,0,0.05,5,0)" xlink:href="#af"/><use transform="matrix(0.05,0,0,0.05,15,0)" xlink:href="#aS"/><use transform="matrix(0.05,0,0,0.05,20,0)" xlink:href="#ao"/><use transform="matrix(0.05,0,0,0.05,30,0)" xlink:href="#aW"/></g><g id="V"><use transform="matrix(0.05,0,0,0.05,0,0)" xlink:href="#aU"/><use transform="matrix(0.05,0,0,0.05,14.950000000000001,0)" xlink:href="#ao"/><use transform="matrix(0.05,0,0,0.05,24.950000000000003,0)" xlink:href="#ap"/><use transform="matrix(0.05,0,0,0.05,34.95,0)" xlink:href="#ah"/><use transform="matrix(0.05,0,0,0.05,38.900000000000006,0)" xlink:href="#aS"/><use transform="matrix(0.05,0,0,0.05,43.900000000000006,0)" xlink:href="#ah"/><use transform="matrix(0.05,0,0,0.05,47.85000000000001,0)" xlink:href="#ad"/><use transform="matrix(0.05,0,0,0.05,57.85,0)" xlink:href="#ae"/></g><g id="W"><use transform="matrix(0.05,0,0,0.05,0,0)" xlink:href="#ab"/><use transform="matrix(0.05,0,0,0.05,3.95,0)" xlink:href="#ad"/></g><path fill="#333" d="M141 0L90-78 38 0H4l68-98-65-92h35l48 74 47-74h35l-64 92 68 98h-35" id="bu"/><g id="X"><use transform="matrix(0.05,0,0,0.05,0,0)" xlink:href="#aP"/><use transform="matrix(0.05,0,0,0.05,10,0)" xlink:href="#ae"/><use transform="matrix(0.05,0,0,0.05,15.949999999999998,0)" xlink:href="#ah"/><use transform="matrix(0.05,0,0,0.05,19.9,0)" xlink:href="#bu"/></g><path fill="#333" d="M68-38c1 34 0 65-14 84H32c9-13 17-26 17-46H33v-38h35" id="bv"/><g id="Y"><use transform="matrix(0.05,0,0,0.05,0,0)" xlink:href="#aO"/><use transform="matrix(0.05,0,0,0.05,14.950000000000001,0)" xlink:href="#ao"/><use transform="matrix(0.05,0,0,0.05,24.950000000000003,0)" xlink:href="#ap"/><use transform="matrix(0.05,0,0,0.05,34.95,0)" xlink:href="#ah"/><use transform="matrix(0.05,0,0,0.05,38.900000000000006,0)" xlink:href="#aS"/><use transform="matrix(0.05,0,0,0.05,43.900000000000006,0)" xlink:href="#ah"/><use transform="matrix(0.05,0,0,0.05,47.85000000000001,0)" xlink:href="#ad"/><use transform="matrix(0.05,0,0,0.05,57.85,0)" xlink:href="#ae"/><use transform="matrix(0.05,0,0,0.05,63.80000000000001,0)" xlink:href="#an"/><use transform="matrix(0.05,0,0,0.05,75.80000000000001,0)" xlink:href="#ae"/><use transform="matrix(0.05,0,0,0.05,81.75000000000001,0)" xlink:href="#ao"/><use transform="matrix(0.05,0,0,0.05,91.75000000000001,0)" xlink:href="#ap"/><use transform="matrix(0.05,0,0,0.05,101.75000000000001,0)" xlink:href="#aq"/><use transform="matrix(0.05,0,0,0.05,111.75,0)" xlink:href="#ah"/><use transform="matrix(0.05,0,0,0.05,115.7,0)" xlink:href="#ac"/><use transform="matrix(0.05,0,0,0.05,120.7,0)" xlink:href="#ar"/><use transform="matrix(0.05,0,0,0.05,126.65000000000003,0)" xlink:href="#an"/><use transform="matrix(0.05,0,0,0.05,136.35000000000002,0)" xlink:href="#bv"/></g><g id="Z"><use transform="matrix(0.05,0,0,0.05,0,0)" xlink:href="#aP"/><use transform="matrix(0.05,0,0,0.05,10,0)" xlink:href="#ae"/><use transform="matrix(0.05,0,0,0.05,15.949999999999998,0)" xlink:href="#ah"/><use transform="matrix(0.05,0,0,0.05,19.9,0)" xlink:href="#bu"/><use transform="matrix(0.05,0,0,0.05,28.899999999999995,0)" xlink:href="#as"/></g></defs></g></svg>