<svg xmlns="http://www.w3.org/2000/svg" xmlns:xlink="http://www.w3.org/1999/xlink" xmlns:lucid="lucid" width="1760" height="1360"><g transform="translate(0 0)" lucid:page-tab-id="0_0"><path d="M0 0h1760v1360H0z" fill="#fff"/><path d="M480 308c0-4.42 3.58-8 8-8h804c4.42 0 8 3.58 8 8v724c0 4.42-3.58 8-8 8H488c-4.42 0-8-3.58-8-8z" stroke="#333" fill="#fff"/><path d="M633.72 708c0-4.42 3.6-8 8-8h84c4.42 0 8 3.58 8 8v4.93c0 3.9-2.23 9.3-5 12.07-2.76 2.76-8.16 5-12.07 5h-74.93c-4.4 0-8-3.58-8-8z" fill="#fff"/><path d="M733.72 700v20l-10 10h-90" stroke="#333" fill="none"/><path d="M633.72 708c0-4.42 3.6-8 8-8h544c4.42 0 8 3.58 8 8v284c0 4.42-3.58 8-8 8h-544c-4.4 0-8-3.58-8-8zM633.72 865h20m15 0h20m15 0h20m15 0h20m15 0h20m15 0h20m15 0h20m15 0h20m15 0h20m15 0h20m15 0h20m15 0h20m15 0h20m15 0h20m15 0h20m15 0h20" stroke="#333" fill="none"/><use xlink:href="#a" transform="matrix(1,0,0,1,641.7249277561041,700) translate(-1.4249999999999972 18.6)"/><use xlink:href="#b" transform="matrix(1,0,0,1,645.7249277561041,738) translate(7.525000000000006 18.6)"/><use xlink:href="#c" transform="matrix(1,0,0,1,645.7249277561041,738) translate(35.47500000000001 18.6)"/><use xlink:href="#d" transform="matrix(1,0,0,1,645.7249277561041,738) translate(148.32500000000002 18.6)"/><use xlink:href="#e" transform="matrix(1,0,0,1,645.7249277561041,738) translate(159.275 18.6)"/><use xlink:href="#f" transform="matrix(1,0,0,1,645.7249277561041,738) translate(174.775 18.6)"/><use xlink:href="#g" transform="matrix(1,0,0,1,645.7249277561041,873) translate(13.524999999999999 18.6)"/><path d="M820 560h240v40H820z" fill="none"/><use xlink:href="#h" transform="matrix(1,0,0,1,820,560) translate(34.64999999999999 23.6)"/><use xlink:href="#i" transform="matrix(1,0,0,1,820,560) translate(166.45 23.6)"/><path d="M1098.7 464.5v10.1m0 10.1v20.2m0 10.08v20.2m0 10.1v20.18m0 10.1v20.2m0 10.1v20.18m0 10.1v20.2m0 10.1v20.18m0 10.1v20.2m0 10.1v20.18m0 10.1v20.2m0 10.1v20.18m0 10.1v20.2m0 10.1v20.18m0 10.1v20.2m0 10.1v20.18m0 10.1v20.2m0 10.08v20.2m0 10.1v20.2m0 10.08v10.1" stroke="#333" fill="none"/><path d="M1099.2 464.5h-1v-.5h1M1099.2 1040.5h-1v-.5h1" fill="#333"/><path d="M1080 577.4c0-4.42 3.58-8 8-8h24c4.42 0 8 3.58 8 8V952c0 4.42-3.58 8-8 8h-24c-4.42 0-8-3.58-8-8z" stroke="#f2f2f2" fill="#ced4db"/><path d="M1003.65 328c0-4.42 3.58-8 8-8h174.07c4.42 0 8 3.58 8 8v128c0 4.42-3.58 8-8 8h-174.07c-4.42 0-8-3.58-8-8z" stroke="#000" stroke-opacity="0" fill="#ffaf28"/><use xlink:href="#j" transform="matrix(1,0,0,1,1011.6496896262571,328) translate(49.03086419753086 56.888888888888886)"/><use xlink:href="#k" transform="matrix(1,0,0,1,1011.6496896262571,328) translate(74.70987654320987 56.888888888888886)"/><use xlink:href="#l" transform="matrix(1,0,0,1,1011.6496896262571,328) translate(105.2283950617284 56.888888888888886)"/><use xlink:href="#m" transform="matrix(1,0,0,1,1011.6496896262571,328) translate(29.055555555555557 78.22222222222223)"/><path d="M803.4 377.42c0 10.9-8.84 19.75-19.75 19.75-10.9 0-19.75-8.85-19.75-19.75s8.84-19.75 19.75-19.75c10.9 0 19.75 8.84 19.75 19.75z" stroke="#333" fill="#fff"/><path d="M783.65 397.17v47.3c0 4.4 1.92 11.02 4.28 14.76l35.72 56.44m-40-63.2l-40 63.2m0-98.75h80" stroke="#333" fill="none"/><path d="M743.65 365.67c0-4.42 3.58-8 8-8h64c4.42 0 8 3.58 8 8v164c0 4.4-3.58 8-8 8h-64c-4.42 0-8-3.6-8-8z" fill="none"/><use xlink:href="#n" transform="matrix(1,0,0,1,663.6496896262572,515.6655519423589) translate(85.48148148148148 14.555555555555555)"/><path d="M783.65 453.9v9.77m0 9.77v19.53m0 9.77v19.54m0 9.77v19.53m0 9.77v19.54m0 9.76v19.53m0 9.76v19.54m0 9.77v19.53m0 9.77v19.54m0 9.78v19.53m0 9.78v19.54m0 9.77V786m0 9.77v19.53m0 9.77v19.53m0 9.77v19.54m0 9.77v19.54m0 9.77v19.55m0 9.77v19.53m0 9.77v19.54m0 9.77v19.53m0 9.77v9.77M783.65 453.9v-3.5" stroke="#333" fill="none"/><path d="M784.14 1040v.5h-1v-.5" fill="#333"/><path d="M787.56 595.67h275.56M787.57 595.67h-.5" stroke="#333" fill="none"/><path d="M1077.88 595.67l-14.26 4.63v-9.27z" stroke="#333" fill="#333"/><path d="M763.65 577.4c0-4.42 3.58-8 8-8h24c4.42 0 8 3.58 8 8V652c0 4.42-3.58 8-8 8h-24c-4.42 0-8-3.58-8-8zM763.65 788c0-4.42 3.58-8 8-8h24c4.42 0 8 3.58 8 8v44c0 4.42-3.58 8-8 8h-24c-4.42 0-8-3.58-8-8z" stroke="#f2f2f2" fill="#ced4db"/><path d="M1077.7 810H820.52M1077.67 810h.52" stroke="#333" fill="none"/><path d="M805.77 810l14.26-4.64v9.28z" stroke="#333" fill="#333"/><use xlink:href="#o" transform="matrix(1,0,0,1,882.2684991587189,814) translate(0.005000000000002558 14.4)"/><use xlink:href="#p" transform="matrix(1,0,0,1,882.2684991587189,814) translate(77.95500000000001 14.4)"/><path d="M763.65 908c0-4.42 3.58-8 8-8h24c4.42 0 8 3.58 8 8v44c0 4.42-3.58 8-8 8h-24c-4.42 0-8-3.58-8-8z" stroke="#f2f2f2" fill="#ced4db"/><path d="M1077.7 810H820.52M1077.67 810h.52" stroke="#333" fill="none"/><path d="M805.77 810l14.26-4.64v9.28z" stroke="#333" fill="#333"/><g><use xlink:href="#q" transform="matrix(1,0,0,1,882.2684991587189,814) translate(0.005000000000002558 14.4)"/><use xlink:href="#r" transform="matrix(1,0,0,1,882.2684991587189,814) translate(77.95500000000001 14.4)"/></g><path d="M1079 920H820.52M1079 920h.5" stroke="#333" fill="none"/><path d="M805.77 920l14.26-4.64v9.28z" stroke="#333" fill="#333"/><g><use xlink:href="#s" transform="matrix(1,0,0,1,841.5998448131286,924.0000000000001) translate(0.0049999999999954525 14.4)"/><use xlink:href="#t" transform="matrix(1,0,0,1,841.5998448131286,924.0000000000001) translate(65.55499999999999 14.4)"/><use xlink:href="#u" transform="matrix(1,0,0,1,841.5998448131286,924.0000000000001) translate(130.555 14.4)"/></g><path d="M763.65 1068c0-4.42 3.58-8 8-8H1032c4.42 0 8 3.58 8 8v33.93c0 4.42-3.58 8-8 8H771.65c-4.42 0-8-3.58-8-8z" stroke="#000" stroke-opacity="0" fill="#fff" fill-opacity="0"/><g><use xlink:href="#v" transform="matrix(1,0,0,1,768.6496896262571,1065) translate(9.211728395061769 25.788888888888884)"/><use xlink:href="#w" transform="matrix(1,0,0,1,768.6496896262571,1065) translate(57.64938271604941 25.788888888888884)"/><use xlink:href="#x" transform="matrix(1,0,0,1,768.6496896262571,1065) translate(75.35864197530866 25.788888888888884)"/><use xlink:href="#y" transform="matrix(1,0,0,1,768.6496896262571,1065) translate(119.02530864197531 25.788888888888884)"/></g><defs><path fill="#333" d="M205 0l-28-72H64L36 0H1l101-248h38L239 0h-34zm-38-99l-47-123c-12 45-31 82-46 123h93" id="z"/><path fill="#333" d="M24 0v-261h32V0H24" id="A"/><path fill="#333" d="M59-47c-2 24 18 29 38 22v24C64 9 27 4 27-40v-127H5v-23h24l9-43h21v43h35v23H59v120" id="B"/><path fill="#333" d="M100-194c63 0 86 42 84 106H49c0 40 14 67 53 68 26 1 43-12 49-29l28 8c-11 28-37 45-77 45C44 4 14-33 15-96c1-61 26-98 85-98zm52 81c6-60-76-77-97-28-3 7-6 17-6 28h103" id="C"/><path fill="#333" d="M114-163C36-179 61-72 57 0H25l-1-190h30c1 12-1 29 2 39 6-27 23-49 58-41v29" id="D"/><path fill="#333" d="M117-194c89-4 53 116 60 194h-32v-121c0-31-8-49-39-48C34-167 62-67 57 0H25l-1-190h30c1 10-1 24 2 32 11-22 29-35 61-36" id="E"/><path fill="#333" d="M141-36C126-15 110 5 73 4 37 3 15-17 15-53c-1-64 63-63 125-63 3-35-9-54-41-54-24 1-41 7-42 31l-33-3c5-37 33-52 76-52 45 0 72 20 72 64v82c-1 20 7 32 28 27v20c-31 9-61-2-59-35zM48-53c0 20 12 33 32 33 41-3 63-29 60-74-43 2-92-5-92 41" id="F"/><path fill="#333" d="M24-231v-30h32v30H24zM24 0v-190h32V0H24" id="G"/><path fill="#333" d="M108 0H70L1-190h34L89-25l56-165h34" id="H"/><g id="a"><use transform="matrix(0.05,0,0,0.05,0,0)" xlink:href="#z"/><use transform="matrix(0.05,0,0,0.05,12,0)" xlink:href="#A"/><use transform="matrix(0.05,0,0,0.05,15.949999999999998,0)" xlink:href="#B"/><use transform="matrix(0.05,0,0,0.05,20.95,0)" xlink:href="#C"/><use transform="matrix(0.05,0,0,0.05,30.950000000000003,0)" xlink:href="#D"/><use transform="matrix(0.05,0,0,0.05,36.9,0)" xlink:href="#E"/><use transform="matrix(0.05,0,0,0.05,46.9,0)" xlink:href="#F"/><use transform="matrix(0.05,0,0,0.05,56.900000000000006,0)" xlink:href="#B"/><use transform="matrix(0.05,0,0,0.05,61.900000000000006,0)" xlink:href="#G"/><use transform="matrix(0.05,0,0,0.05,65.85,0)" xlink:href="#H"/><use transform="matrix(0.05,0,0,0.05,74.85,0)" xlink:href="#C"/></g><path fill="#333" d="M26 75v-336h71v23H56V52h41v23H26" id="I"/><path fill="#333" d="M135-143c-3-34-86-38-87 0 15 53 115 12 119 90S17 21 10-45l28-5c4 36 97 45 98 0-10-56-113-15-118-90-4-57 82-63 122-42 12 7 21 19 24 35" id="J"/><g id="b"><use transform="matrix(0.05,0,0,0.05,0,0)" xlink:href="#I"/><use transform="matrix(0.05,0,0,0.05,5,0)" xlink:href="#J"/><use transform="matrix(0.05,0,0,0.05,14,0)" xlink:href="#G"/></g><path fill="#333" d="M212-179c-10-28-35-45-73-45-59 0-87 40-87 99 0 60 29 101 89 101 43 0 62-24 78-52l27 14C228-24 195 4 139 4 59 4 22-46 18-125c-6-104 99-153 187-111 19 9 31 26 39 46" id="K"/><path fill="#333" d="M100-194c62-1 85 37 85 99 1 63-27 99-86 99S16-35 15-95c0-66 28-99 85-99zM99-20c44 1 53-31 53-75 0-43-8-75-51-75s-53 32-53 75 10 74 51 75" id="L"/><path fill="#333" d="M96-169c-40 0-48 33-48 73s9 75 48 75c24 0 41-14 43-38l32 2c-6 37-31 61-74 61-59 0-76-41-82-99-10-93 101-131 147-64 4 7 5 14 7 22l-32 3c-4-21-16-35-41-35" id="M"/><path fill="#333" d="M87 75C49 33 22-17 22-94c0-76 28-126 65-167h31c-38 41-64 92-64 168S80 34 118 75H87" id="N"/><g id="c"><use transform="matrix(0.05,0,0,0.05,0,0)" xlink:href="#J"/><use transform="matrix(0.05,0,0,0.05,9,0)" xlink:href="#C"/><use transform="matrix(0.05,0,0,0.05,19,0)" xlink:href="#K"/><use transform="matrix(0.05,0,0,0.05,31.950000000000003,0)" xlink:href="#L"/><use transform="matrix(0.05,0,0,0.05,41.95,0)" xlink:href="#E"/><use transform="matrix(0.05,0,0,0.05,51.95,0)" xlink:href="#E"/><use transform="matrix(0.05,0,0,0.05,61.95,0)" xlink:href="#C"/><use transform="matrix(0.05,0,0,0.05,71.95,0)" xlink:href="#M"/><use transform="matrix(0.05,0,0,0.05,80.95,0)" xlink:href="#B"/><use transform="matrix(0.05,0,0,0.05,85.95,0)" xlink:href="#C"/><use transform="matrix(0.05,0,0,0.05,95.95,0)" xlink:href="#D"/><use transform="matrix(0.05,0,0,0.05,101.9,0)" xlink:href="#N"/></g><path fill="#333" d="M33-261c38 41 65 92 65 168S71 34 33 75H2C39 34 66-17 66-93S39-220 2-261h31" id="O"/><use transform="matrix(0.05,0,0,0.05,0,0)" xlink:href="#O" id="d"/><path fill="#333" d="M18-150v-26h174v26H18zm0 90v-26h174v26H18" id="P"/><use transform="matrix(0.05,0,0,0.05,0,0)" xlink:href="#P" id="e"/><path fill="#333" d="M47-170H22l-4-78h33" id="Q"/><path fill="#333" d="M190 0L58-211 59 0H30v-248h39L202-35l-2-213h31V0h-41" id="R"/><path fill="#333" d="M232-93c-1 65-40 97-104 97C67 4 28-28 28-90v-158h33c8 89-33 224 67 224 102 0 64-133 71-224h33v155" id="S"/><path fill="#333" d="M30 0v-248h33v221h125V0H30" id="T"/><path fill="#333" d="M3 75V52h41v-290H3v-23h71V75H3" id="U"/><g id="f"><use transform="matrix(0.05,0,0,0.05,0,0)" xlink:href="#Q"/><use transform="matrix(0.05,0,0,0.05,3.4000000000000004,0)" xlink:href="#R"/><use transform="matrix(0.05,0,0,0.05,16.35,0)" xlink:href="#S"/><use transform="matrix(0.05,0,0,0.05,29.3,0)" xlink:href="#T"/><use transform="matrix(0.05,0,0,0.05,39.300000000000004,0)" xlink:href="#T"/><use transform="matrix(0.05,0,0,0.05,49.300000000000004,0)" xlink:href="#Q"/><use transform="matrix(0.05,0,0,0.05,52.7,0)" xlink:href="#U"/></g><g id="g"><use transform="matrix(0.05,0,0,0.05,0,0)" xlink:href="#I"/><use transform="matrix(0.05,0,0,0.05,5,0)" xlink:href="#J"/><use transform="matrix(0.05,0,0,0.05,14,0)" xlink:href="#G"/><use transform="matrix(0.05,0,0,0.05,17.95,0)" xlink:href="#E"/><use transform="matrix(0.05,0,0,0.05,27.950000000000003,0)" xlink:href="#L"/><use transform="matrix(0.05,0,0,0.05,37.95,0)" xlink:href="#E"/><use transform="matrix(0.05,0,0,0.05,47.95,0)" xlink:href="#U"/></g><path fill="#333" d="M85-194c31 0 48 13 60 33l-1-100h32l1 261h-30c-2-10 0-23-3-31C134-8 116 4 85 4 32 4 16-35 15-94c0-66 23-100 70-100zm9 24c-40 0-46 34-46 75 0 40 6 74 45 74 42 0 51-32 51-76 0-42-9-74-50-73" id="V"/><path fill="#333" d="M68-38c1 34 0 65-14 84H32c9-13 17-26 17-46H33v-38h35" id="W"/><g id="h"><use transform="matrix(0.05,0,0,0.05,0,0)" xlink:href="#J"/><use transform="matrix(0.05,0,0,0.05,9,0)" xlink:href="#C"/><use transform="matrix(0.05,0,0,0.05,19,0)" xlink:href="#K"/><use transform="matrix(0.05,0,0,0.05,31.950000000000003,0)" xlink:href="#L"/><use transform="matrix(0.05,0,0,0.05,41.95,0)" xlink:href="#E"/><use transform="matrix(0.05,0,0,0.05,51.95,0)" xlink:href="#E"/><use transform="matrix(0.05,0,0,0.05,61.95,0)" xlink:href="#C"/><use transform="matrix(0.05,0,0,0.05,71.95,0)" xlink:href="#M"/><use transform="matrix(0.05,0,0,0.05,80.95,0)" xlink:href="#B"/><use transform="matrix(0.05,0,0,0.05,85.95,0)" xlink:href="#C"/><use transform="matrix(0.05,0,0,0.05,95.95,0)" xlink:href="#D"/><use transform="matrix(0.05,0,0,0.05,101.9,0)" xlink:href="#N"/><use transform="matrix(0.05,0,0,0.05,107.85000000000001,0)" xlink:href="#G"/><use transform="matrix(0.05,0,0,0.05,111.80000000000001,0)" xlink:href="#V"/><use transform="matrix(0.05,0,0,0.05,121.80000000000001,0)" xlink:href="#W"/></g><path fill="#333" d="M115-194c55 1 70 41 70 98S169 2 115 4C84 4 66-9 55-30l1 105H24l-1-265h31l2 30c10-21 28-34 59-34zm-8 174c40 0 45-34 45-75s-6-73-45-74c-42 0-51 32-51 76 0 43 10 73 51 73" id="X"/><path fill="#333" d="M206 0h-36l-40-164L89 0H53L-1-190h32L70-26l43-164h34l41 164 42-164h31" id="Y"/><g id="i"><use transform="matrix(0.05,0,0,0.05,0,0)" xlink:href="#X"/><use transform="matrix(0.05,0,0,0.05,10,0)" xlink:href="#Y"/><use transform="matrix(0.05,0,0,0.05,22.950000000000003,0)" xlink:href="#V"/><use transform="matrix(0.05,0,0,0.05,32.95,0)" xlink:href="#O"/></g><path fill="#333" d="M22-91v-56l180-69v40L56-119l146 57v40" id="Z"/><g id="j"><use transform="matrix(0.04938271604938272,0,0,0.04938271604938272,0,0)" xlink:href="#Z"/><use transform="matrix(0.04938271604938272,0,0,0.04938271604938272,10.370370370370372,0)" xlink:href="#Z"/><path fill="#333" d="M-.9.95h27.47v1.87H-.9z"/></g><path fill="#333" d="M240-76C239 26 104-5 6 0l48-248c79 4 193-21 193 58 0 38-25 53-57 60 29 5 49 21 50 54zm-45-106c0-40-58-24-96-27l-12 61c45-3 108 12 108-34zm-7 105c0-44-65-31-109-33L66-38c51-3 122 14 122-39" id="aa"/><path fill="#333" d="M250-142C247-53 197 0 108 0H6l48-248c105-5 200 3 196 106zm-49 2c1-57-42-72-103-68L66-40c84 6 135-22 135-100" id="ab"/><g id="k"><use transform="matrix(0.04938271604938272,0,0,0.04938271604938272,0,0)" xlink:href="#aa"/><use transform="matrix(0.04938271604938272,0,0,0.04938271604938272,12.790123456790125,0)" xlink:href="#ab"/><path fill="#333" d="M-.9.95h32.3v1.87H-.9z"/></g><path fill="#333" d="M22-22v-40l146-57-146-57v-40l180 69v56" id="ac"/><g id="l"><use transform="matrix(0.04938271604938272,0,0,0.04938271604938272,0,0)" xlink:href="#ac"/><use transform="matrix(0.04938271604938272,0,0,0.04938271604938272,10.370370370370372,0)" xlink:href="#ac"/><path fill="#333" d="M-.9.95h22.53v1.87H-.9z"/></g><path fill="#333" d="M166-52c-4 17 5 29 24 23l-3 27c-30 11-74 1-67-34C105-15 91 4 56 4 23 4 3-15 2-49c0-64 63-67 128-67 10-22 3-53-29-45-13 3-22 10-25 24l-46-5c5-64 156-77 153 0-1 33-11 60-17 90zM97-88c-44-9-64 57-19 57 31 0 42-28 47-57H97" id="ad"/><path fill="#333" d="M156-122c2-23-7-37-28-37-47 0-58 44-58 89 0 24 12 40 36 40 43 0 47-49 50-92zM-8 75l50-265h48c0 10-3 24-3 30 22-50 127-45 121 29-6 73-21 135-92 135-29 0-46-14-55-35L41 75H-8" id="ae"/><path fill="#333" d="M253 0h-61l-6-196c-25 68-54 131-82 196H42L26-248h50l7 204 86-204h55l8 204 82-204h51" id="af"/><path fill="#333" d="M114-194c63-2 87 48 72 110H63c-3 28 1 55 31 54 21-1 32-13 37-29l44 13C160-14 137 4 91 4 41 4 11-22 11-73c0-71 33-119 103-121zm30 77c14-47-50-61-67-22-3 6-6 13-8 22h75" id="ag"/><path fill="#333" d="M87-160c15-17 32-34 63-34 99 1 59 172-1 192-36 12-78 0-87-29L54 0H6l52-261h49zm71 38c0-24-5-37-29-37-46 0-55 46-57 89-1 25 12 40 35 40 44 0 51-50 51-92" id="ah"/><path fill="#333" d="M178-136c88 48 22 151-73 140C49-3 12-15 4-64l51-9c1 50 111 53 115 3-16-63-132-20-133-112 0-93 190-91 199-10l-50 12c-4-41-93-50-97-4 7 38 59 32 89 48" id="ai"/><path fill="#333" d="M72-63c-8 23 5 39 32 30L98-1C54 14 12-6 23-64l18-93H15l7-33h28l24-45h31l-8 45h35l-6 33H90" id="aj"/><path fill="#333" d="M124-194c51 0 84 22 84 74C207-44 167 4 94 4 43 4 11-23 11-74c0-74 41-120 113-120zM99-30c46 0 58-42 58-86 0-27-11-44-37-44-44 0-55 40-57 84-1 27 10 45 36 46" id="ak"/><path fill="#333" d="M67-101c-8 29-7 73 27 71 23-2 32-16 39-37l48 9C170-19 141 4 91 4 36 4 7-28 12-86c6-75 61-124 140-103 26 7 40 29 43 59l-50 4c-1-20-9-34-29-34-35 0-41 29-49 59" id="al"/><path fill="#333" d="M128 0L95-87 70-74 55 0H6l51-261h49L77-111l82-79h56l-83 74L180 0h-52" id="am"/><g id="m"><use transform="matrix(0.04938271604938272,0,0,0.04938271604938272,0,0)" xlink:href="#ad"/><use transform="matrix(0.04938271604938272,0,0,0.04938271604938272,9.876543209876544,0)" xlink:href="#ae"/><use transform="matrix(0.04938271604938272,0,0,0.04938271604938272,20.69135802469136,0)" xlink:href="#ae"/><use transform="matrix(0.04938271604938272,0,0,0.04938271604938272,31.506172839506174,0)" xlink:href="#af"/><use transform="matrix(0.04938271604938272,0,0,0.04938271604938272,47.90123456790124,0)" xlink:href="#ag"/><use transform="matrix(0.04938271604938272,0,0,0.04938271604938272,57.777777777777786,0)" xlink:href="#ah"/><use transform="matrix(0.04938271604938272,0,0,0.04938271604938272,68.5925925925926,0)" xlink:href="#ai"/><use transform="matrix(0.04938271604938272,0,0,0.04938271604938272,80.44444444444444,0)" xlink:href="#aj"/><use transform="matrix(0.04938271604938272,0,0,0.04938271604938272,86.32098765432099,0)" xlink:href="#ak"/><use transform="matrix(0.04938271604938272,0,0,0.04938271604938272,97.1358024691358,0)" xlink:href="#al"/><use transform="matrix(0.04938271604938272,0,0,0.04938271604938272,107.01234567901233,0)" xlink:href="#am"/><path fill="#333" d="M-.9.95H117.8v1.87H-.9z"/></g><path fill="#333" d="M11 0l48-248h184l-5 28H87l-15 79h140l-5 27H67L50-27h158l-5 27H11" id="an"/><path fill="#333" d="M248-111c6-24 9-61-24-58-72 9-57 108-77 169h-31l26-142c3-37-50-30-64-10C52-115 50-51 37 0H6l36-190h30c-1 10-6 24-4 32 13-43 101-52 105 5 13-22 29-41 61-41 90 0 28 129 23 194h-31" id="ao"/><path fill="#333" d="M67-162c32-53 139-36 121 50C175-51 163 2 97 4 68 4 52-11 42-31 38 6 28 39 22 75H-9l50-265h29c-1 10 0 20-3 28zm89 36c0-26-10-43-35-43-54 0-67 50-69 103-1 29 14 45 42 46 53 0 62-58 62-106" id="ap"/><path fill="#333" d="M6 0l50-261h32L37 0H6" id="aq"/><path fill="#333" d="M30-147c31-64 166-65 159 27C183-49 158 1 86 4 9 8 1-88 30-147zM88-20c53 0 68-48 68-100 0-31-11-51-44-50-52 1-68 46-68 97 0 32 13 53 44 53" id="ar"/><path fill="#333" d="M198-190L69 30C53 58 25 83-20 72c4-11-1-27 19-22 33-1 43-29 59-52L20-190h32L79-34l84-156h35" id="as"/><path fill="#333" d="M111-194c62-3 86 47 72 106H45c-7 38 6 69 45 68 27-1 43-14 53-32l24 11C152-15 129 4 87 4 38 3 12-23 12-71c0-70 32-119 99-123zm44 81c14-66-71-72-95-28-4 8-8 17-11 28h106zm-61-98c10-23 31-35 45-54h38l-1 5-66 49H94" id="at"/><g id="n"><use transform="matrix(0.04938271604938272,0,0,0.04938271604938272,0,0)" xlink:href="#an"/><use transform="matrix(0.04938271604938272,0,0,0.04938271604938272,11.851851851851853,0)" xlink:href="#ao"/><use transform="matrix(0.04938271604938272,0,0,0.04938271604938272,26.617283950617285,0)" xlink:href="#ap"/><use transform="matrix(0.04938271604938272,0,0,0.04938271604938272,36.49382716049383,0)" xlink:href="#aq"/><use transform="matrix(0.04938271604938272,0,0,0.04938271604938272,40.39506172839506,0)" xlink:href="#ar"/><use transform="matrix(0.04938271604938272,0,0,0.04938271604938272,50.27160493827161,0)" xlink:href="#as"/><use transform="matrix(0.04938271604938272,0,0,0.04938271604938272,59.1604938271605,0)" xlink:href="#at"/></g><path fill="#333" d="M240 0l2-218c-23 76-54 145-80 218h-23L58-218 59 0H30v-248h44l77 211c21-75 51-140 76-211h43V0h-30" id="au"/><path fill="#333" d="M177-190C167-65 218 103 67 71c-23-6-38-20-44-43l32-5c15 47 100 32 89-28v-30C133-14 115 1 83 1 29 1 15-40 15-95c0-56 16-97 71-98 29-1 48 16 59 35 1-10 0-23 2-32h30zM94-22c36 0 50-32 50-73 0-42-14-75-50-75-39 0-46 34-46 75s6 73 46 73" id="av"/><g id="o"><use transform="matrix(0.05,0,0,0.05,0,0)" xlink:href="#au"/><use transform="matrix(0.05,0,0,0.05,14.950000000000001,0)" xlink:href="#C"/><use transform="matrix(0.05,0,0,0.05,24.950000000000003,0)" xlink:href="#J"/><use transform="matrix(0.05,0,0,0.05,33.95,0)" xlink:href="#J"/><use transform="matrix(0.05,0,0,0.05,42.95,0)" xlink:href="#F"/><use transform="matrix(0.05,0,0,0.05,52.95,0)" xlink:href="#av"/><use transform="matrix(0.05,0,0,0.05,62.95,0)" xlink:href="#C"/></g><path fill="#333" d="M30 0v-248h187v28H63v79h144v27H63v87h162V0H30" id="aw"/><g id="p"><use transform="matrix(0.05,0,0,0.05,0,0)" xlink:href="#aw"/><use transform="matrix(0.05,0,0,0.05,12,0)" xlink:href="#D"/><use transform="matrix(0.05,0,0,0.05,17.95,0)" xlink:href="#D"/><use transform="matrix(0.05,0,0,0.05,23.9,0)" xlink:href="#L"/><use transform="matrix(0.05,0,0,0.05,33.9,0)" xlink:href="#D"/></g><g id="q"><use transform="matrix(0.05,0,0,0.05,0,0)" xlink:href="#au"/><use transform="matrix(0.05,0,0,0.05,14.950000000000001,0)" xlink:href="#C"/><use transform="matrix(0.05,0,0,0.05,24.950000000000003,0)" xlink:href="#J"/><use transform="matrix(0.05,0,0,0.05,33.95,0)" xlink:href="#J"/><use transform="matrix(0.05,0,0,0.05,42.95,0)" xlink:href="#F"/><use transform="matrix(0.05,0,0,0.05,52.95,0)" xlink:href="#av"/><use transform="matrix(0.05,0,0,0.05,62.95,0)" xlink:href="#C"/></g><g id="r"><use transform="matrix(0.05,0,0,0.05,0,0)" xlink:href="#aw"/><use transform="matrix(0.05,0,0,0.05,12,0)" xlink:href="#D"/><use transform="matrix(0.05,0,0,0.05,17.95,0)" xlink:href="#D"/><use transform="matrix(0.05,0,0,0.05,23.9,0)" xlink:href="#L"/><use transform="matrix(0.05,0,0,0.05,33.9,0)" xlink:href="#D"/></g><path fill="#333" d="M101-234c-31-9-42 10-38 44h38v23H63V0H32v-167H5v-23h27c-7-52 17-82 69-68v24" id="ax"/><path fill="#333" d="M106-169C34-169 62-67 57 0H25v-261h32l-1 103c12-21 28-36 61-36 89 0 53 116 60 194h-32v-121c2-32-8-49-39-48" id="ay"/><g id="s"><use transform="matrix(0.05,0,0,0.05,0,0)" xlink:href="#z"/><use transform="matrix(0.05,0,0,0.05,12,0)" xlink:href="#ax"/><use transform="matrix(0.05,0,0,0.05,16.65,0)" xlink:href="#ax"/><use transform="matrix(0.05,0,0,0.05,21.65,0)" xlink:href="#G"/><use transform="matrix(0.05,0,0,0.05,25.599999999999998,0)" xlink:href="#M"/><use transform="matrix(0.05,0,0,0.05,34.599999999999994,0)" xlink:href="#ay"/><use transform="matrix(0.05,0,0,0.05,44.599999999999994,0)" xlink:href="#C"/><use transform="matrix(0.05,0,0,0.05,54.599999999999994,0)" xlink:href="#D"/></g><g id="t"><use transform="matrix(0.05,0,0,0.05,0,0)" xlink:href="#aw"/><use transform="matrix(0.05,0,0,0.05,12,0)" xlink:href="#J"/><use transform="matrix(0.05,0,0,0.05,21,0)" xlink:href="#X"/><use transform="matrix(0.05,0,0,0.05,31,0)" xlink:href="#F"/><use transform="matrix(0.05,0,0,0.05,41,0)" xlink:href="#M"/><use transform="matrix(0.05,0,0,0.05,50,0)" xlink:href="#C"/></g><path fill="#333" d="M210-169c-67 3-38 105-44 169h-31v-121c0-29-5-50-35-48C34-165 62-65 56 0H25l-1-190h30c1 10-1 24 2 32 10-44 99-50 107 0 11-21 27-35 58-36 85-2 47 119 55 194h-31v-121c0-29-5-49-35-48" id="az"/><path fill="#333" d="M179-190L93 31C79 59 56 82 12 73V49c39 6 53-20 64-50L1-190h34L92-34l54-156h33" id="aA"/><path fill="#333" d="M100-194c63 0 86 42 84 106H49c0 40 14 67 53 68 26 1 43-12 49-29l28 8c-11 28-37 45-77 45C44 4 14-33 15-96c1-61 26-98 85-98zm52 81c6-60-76-77-97-28-3 7-6 17-6 28h103zm-74-98c8-23 27-35 38-54h36v5l-58 49H78" id="aB"/><g id="u"><use transform="matrix(0.05,0,0,0.05,0,0)" xlink:href="#aw"/><use transform="matrix(0.05,0,0,0.05,12,0)" xlink:href="#az"/><use transform="matrix(0.05,0,0,0.05,26.950000000000003,0)" xlink:href="#X"/><use transform="matrix(0.05,0,0,0.05,36.95,0)" xlink:href="#A"/><use transform="matrix(0.05,0,0,0.05,40.900000000000006,0)" xlink:href="#L"/><use transform="matrix(0.05,0,0,0.05,50.900000000000006,0)" xlink:href="#aA"/><use transform="matrix(0.05,0,0,0.05,59.900000000000006,0)" xlink:href="#aB"/></g><path fill="#333" d="M24-248c120-7 223 5 221 122C244-46 201 0 124 0H24v-248zM76-40c74 7 117-18 117-86 0-67-45-88-117-82v168" id="aC"/><path fill="#333" d="M169-182c-1-43-94-46-97-3 18 66 151 10 154 114 3 95-165 93-204 36-6-8-10-19-12-30l50-8c3 46 112 56 116 5-17-69-150-10-154-114-4-87 153-88 188-35 5 8 8 18 10 28" id="aD"/><g id="v"><use transform="matrix(0.08086419753086417,0,0,0.08086419753086417,0,0)" xlink:href="#aC"/><use transform="matrix(0.08086419753086417,0,0,0.08086419753086417,20.94382716049382,0)" xlink:href="#aD"/></g><path fill="#333" d="M35-132v-50h50v50H35zM35 0v-49h50V0H35" id="aE"/><use transform="matrix(0.08086419753086417,0,0,0.08086419753086417,0,0)" xlink:href="#aE" id="w"/><path fill="#333" d="M185-48c-13 30-37 53-82 52C43 2 14-33 14-96s30-98 90-98c62 0 83 45 84 108H66c0 31 8 55 39 56 18 0 30-7 34-22zm-45-69c5-46-57-63-70-21-2 6-4 13-4 21h74" id="aF"/><g id="x"><use transform="matrix(0.08086419753086417,0,0,0.08086419753086417,0,0)" xlink:href="#aD"/><use transform="matrix(0.08086419753086417,0,0,0.08086419753086417,19.4074074074074,0)" xlink:href="#aF"/></g><path fill="#333" d="M190-63c-7 42-38 67-86 67-59 0-84-38-90-98-12-110 154-137 174-36l-49 2c-2-19-15-32-35-32-30 0-35 28-38 64-6 74 65 87 74 30" id="aG"/><path fill="#333" d="M110-194c64 0 96 36 96 99 0 64-35 99-97 99-61 0-95-36-95-99 0-62 34-99 96-99zm-1 164c35 0 45-28 45-65 0-40-10-65-43-65-34 0-45 26-45 65 0 36 10 65 43 65" id="aH"/><path fill="#333" d="M135-194c87-1 58 113 63 194h-50c-7-57 23-157-34-157-59 0-34 97-39 157H25l-1-190h47c2 12-1 28 3 38 12-26 28-41 61-42" id="aI"/><path fill="#333" d="M115-3C79 11 28 4 28-45v-112H4v-33h27l15-45h31v45h36v33H77v99c-1 23 16 31 38 25v30" id="aJ"/><path fill="#333" d="M135-150c-39-12-60 13-60 57V0H25l-1-190h47c2 13-1 29 3 40 6-28 27-53 61-41v41" id="aK"/><g id="y"><use transform="matrix(0.08086419753086417,0,0,0.08086419753086417,0,0)" xlink:href="#aG"/><use transform="matrix(0.08086419753086417,0,0,0.08086419753086417,16.172839506172835,0)" xlink:href="#aH"/><use transform="matrix(0.08086419753086417,0,0,0.08086419753086417,33.88209876543209,0)" xlink:href="#aI"/><use transform="matrix(0.08086419753086417,0,0,0.08086419753086417,51.59135802469134,0)" xlink:href="#aI"/><use transform="matrix(0.08086419753086417,0,0,0.08086419753086417,69.3006172839506,0)" xlink:href="#aF"/><use transform="matrix(0.08086419753086417,0,0,0.08086419753086417,85.47345679012344,0)" xlink:href="#aG"/><use transform="matrix(0.08086419753086417,0,0,0.08086419753086417,101.64629629629626,0)" xlink:href="#aJ"/><use transform="matrix(0.08086419753086417,0,0,0.08086419753086417,111.26913580246912,0)" xlink:href="#aF"/><use transform="matrix(0.08086419753086417,0,0,0.08086419753086417,127.44197530864196,0)" xlink:href="#aK"/></g></defs></g></svg>